<svg width="576" height="494" viewBox="0 0 576 494" fill="none" xmlns="http://www.w3.org/2000/svg">
<g filter="url(#filter0_d_1326_1015)">
<rect x="60" y="200" width="266" height="125" rx="7" fill="white" shape-rendering="crispEdges"/>
<rect x="81.5" y="220" width="35" height="35" rx="7" fill="#72C8CC"/>
<path d="M98.5314 242.072C98.0514 242.072 97.6074 241.968 97.1994 241.76C96.7914 241.552 96.4594 241.256 96.2034 240.872L96.7314 240.272C97.1954 240.96 97.7994 241.304 98.5434 241.304C99.5834 241.304 100.103 240.688 100.103 239.456V234.368H97.0314V233.6H100.979V239.42C100.979 240.3 100.771 240.964 100.355 241.412C99.9474 241.852 99.3394 242.072 98.5314 242.072Z" fill="white"/>
<path d="M248.91 240.548C248.596 240.548 248.3 240.479 248.022 240.34C247.75 240.201 247.532 240.004 247.366 239.748L247.71 239.348C247.865 239.572 248.044 239.743 248.246 239.86C248.449 239.977 248.673 240.036 248.918 240.036C249.612 240.036 249.958 239.625 249.958 238.804V235.412H247.91V234.9H250.542V238.78C250.542 239.372 250.404 239.815 250.126 240.108C249.854 240.401 249.449 240.548 248.91 240.548ZM254.83 240.5V239.572L254.806 239.42V237.868C254.806 237.511 254.705 237.236 254.502 237.044C254.305 236.852 254.009 236.756 253.614 236.756C253.342 236.756 253.084 236.801 252.838 236.892C252.593 236.983 252.385 237.103 252.214 237.252L251.958 236.828C252.172 236.647 252.428 236.508 252.726 236.412C253.025 236.311 253.34 236.26 253.67 236.26C254.214 236.26 254.633 236.396 254.926 236.668C255.225 236.935 255.374 237.343 255.374 237.892V240.5H254.83ZM253.382 240.54C253.068 240.54 252.793 240.489 252.558 240.388C252.329 240.281 252.153 240.137 252.03 239.956C251.908 239.769 251.846 239.556 251.846 239.316C251.846 239.097 251.897 238.9 251.998 238.724C252.105 238.543 252.276 238.399 252.51 238.292C252.75 238.18 253.07 238.124 253.47 238.124H254.918V238.548H253.486C253.081 238.548 252.798 238.62 252.638 238.764C252.484 238.908 252.406 239.087 252.406 239.3C252.406 239.54 252.5 239.732 252.686 239.876C252.873 240.02 253.134 240.092 253.47 240.092C253.79 240.092 254.065 240.02 254.294 239.876C254.529 239.727 254.7 239.513 254.806 239.236L254.934 239.628C254.828 239.905 254.641 240.127 254.374 240.292C254.113 240.457 253.782 240.54 253.382 240.54ZM259.061 236.26C259.402 236.26 259.701 236.327 259.957 236.46C260.218 236.588 260.421 236.785 260.565 237.052C260.714 237.319 260.789 237.655 260.789 238.06V240.5H260.221V238.116C260.221 237.673 260.109 237.34 259.885 237.116C259.666 236.887 259.357 236.772 258.957 236.772C258.658 236.772 258.397 236.833 258.173 236.956C257.954 237.073 257.784 237.247 257.661 237.476C257.544 237.7 257.485 237.972 257.485 238.292V240.5H256.917V236.3H257.461V237.452L257.373 237.236C257.506 236.932 257.72 236.695 258.013 236.524C258.306 236.348 258.656 236.26 259.061 236.26ZM263.937 240.5V240.092L266.265 237.812C266.478 237.604 266.638 237.423 266.745 237.268C266.852 237.108 266.924 236.959 266.961 236.82C266.998 236.681 267.017 236.551 267.017 236.428C267.017 236.103 266.905 235.847 266.681 235.66C266.462 235.473 266.137 235.38 265.705 235.38C265.374 235.38 265.081 235.431 264.825 235.532C264.574 235.633 264.358 235.791 264.177 236.004L263.769 235.652C263.988 235.396 264.268 235.199 264.609 235.06C264.95 234.921 265.332 234.852 265.753 234.852C266.132 234.852 266.46 234.913 266.737 235.036C267.014 235.153 267.228 235.327 267.377 235.556C267.532 235.785 267.609 236.055 267.609 236.364C267.609 236.545 267.582 236.724 267.529 236.9C267.481 237.076 267.39 237.263 267.257 237.46C267.129 237.652 266.94 237.871 266.689 238.116L264.553 240.212L264.393 239.988H267.865V240.5H263.937ZM270.714 241.668L271.066 240.188L271.13 240.532C271.007 240.532 270.903 240.492 270.818 240.412C270.738 240.332 270.698 240.228 270.698 240.1C270.698 239.972 270.738 239.868 270.818 239.788C270.903 239.708 271.004 239.668 271.122 239.668C271.244 239.668 271.343 239.711 271.418 239.796C271.498 239.881 271.538 239.983 271.538 240.1C271.538 240.143 271.535 240.185 271.53 240.228C271.524 240.271 271.514 240.319 271.498 240.372C271.482 240.425 271.46 240.489 271.434 240.564L271.098 241.668H270.714ZM275.447 240.5V235.14L275.703 235.412H274.127V234.9H276.023V240.5H275.447ZM277.257 240.5V240.092L279.585 237.812C279.799 237.604 279.959 237.423 280.065 237.268C280.172 237.108 280.244 236.959 280.281 236.82C280.319 236.681 280.337 236.551 280.337 236.428C280.337 236.103 280.225 235.847 280.001 235.66C279.783 235.473 279.457 235.38 279.025 235.38C278.695 235.38 278.401 235.431 278.145 235.532C277.895 235.633 277.679 235.791 277.497 236.004L277.089 235.652C277.308 235.396 277.588 235.199 277.929 235.06C278.271 234.921 278.652 234.852 279.073 234.852C279.452 234.852 279.78 234.913 280.057 235.036C280.335 235.153 280.548 235.327 280.697 235.556C280.852 235.785 280.929 236.055 280.929 236.364C280.929 236.545 280.903 236.724 280.849 236.9C280.801 237.076 280.711 237.263 280.577 237.46C280.449 237.652 280.26 237.871 280.009 238.116L277.873 240.212L277.713 239.988H281.185V240.5H277.257ZM282.34 237.132C282.223 237.132 282.122 237.089 282.036 237.004C281.956 236.919 281.916 236.815 281.916 236.692C281.916 236.564 281.956 236.46 282.036 236.38C282.122 236.3 282.223 236.26 282.34 236.26C282.458 236.26 282.556 236.3 282.636 236.38C282.722 236.46 282.764 236.564 282.764 236.692C282.764 236.815 282.722 236.919 282.636 237.004C282.556 237.089 282.458 237.132 282.34 237.132ZM282.34 240.54C282.223 240.54 282.122 240.497 282.036 240.412C281.956 240.327 281.916 240.223 281.916 240.1C281.916 239.972 281.956 239.868 282.036 239.788C282.122 239.708 282.223 239.668 282.34 239.668C282.458 239.668 282.556 239.708 282.636 239.788C282.722 239.868 282.764 239.972 282.764 240.1C282.764 240.223 282.722 240.327 282.636 240.412C282.556 240.497 282.458 240.54 282.34 240.54ZM285.276 240.548C284.87 240.548 284.486 240.484 284.124 240.356C283.766 240.223 283.478 240.047 283.26 239.828L283.54 239.372C283.721 239.559 283.964 239.713 284.268 239.836C284.577 239.959 284.913 240.02 285.276 240.02C285.74 240.02 286.094 239.919 286.34 239.716C286.59 239.513 286.716 239.241 286.716 238.9C286.716 238.559 286.593 238.287 286.348 238.084C286.108 237.881 285.726 237.78 285.204 237.78H284.804V237.356L286.532 235.188L286.612 235.412H283.492V234.9H287.092V235.308L285.364 237.476L285.084 237.292H285.299C285.972 237.292 286.473 237.441 286.804 237.74C287.14 238.039 287.308 238.423 287.308 238.892C287.308 239.207 287.233 239.489 287.084 239.74C286.934 239.991 286.708 240.188 286.404 240.332C286.105 240.476 285.729 240.548 285.276 240.548ZM289.095 240.5V235.14L289.351 235.412H287.775V234.9H289.671V240.5H289.095ZM293.554 240.54C293.191 240.54 292.863 240.457 292.57 240.292C292.276 240.121 292.042 239.879 291.866 239.564C291.695 239.244 291.61 238.855 291.61 238.396C291.61 237.937 291.695 237.551 291.866 237.236C292.036 236.916 292.268 236.673 292.562 236.508C292.855 236.343 293.186 236.26 293.554 236.26C293.954 236.26 294.311 236.351 294.626 236.532C294.946 236.708 295.196 236.959 295.378 237.284C295.559 237.604 295.65 237.975 295.65 238.396C295.65 238.823 295.559 239.196 295.378 239.516C295.196 239.836 294.946 240.087 294.626 240.268C294.311 240.449 293.954 240.54 293.554 240.54ZM291.386 242.052V236.3H291.93V237.564L291.874 238.404L291.954 239.252V242.052H291.386ZM293.514 240.036C293.812 240.036 294.079 239.969 294.314 239.836C294.548 239.697 294.735 239.505 294.874 239.26C295.012 239.009 295.082 238.721 295.082 238.396C295.082 238.071 295.012 237.785 294.874 237.54C294.735 237.295 294.548 237.103 294.314 236.964C294.079 236.825 293.812 236.756 293.514 236.756C293.215 236.756 292.946 236.825 292.706 236.964C292.471 237.103 292.284 237.295 292.146 237.54C292.012 237.785 291.946 238.071 291.946 238.396C291.946 238.721 292.012 239.009 292.146 239.26C292.284 239.505 292.471 239.697 292.706 239.836C292.946 239.969 293.215 240.036 293.514 240.036ZM302.056 236.26C302.397 236.26 302.693 236.327 302.944 236.46C303.2 236.588 303.397 236.785 303.536 237.052C303.68 237.319 303.752 237.655 303.752 238.06V240.5H303.184V238.116C303.184 237.673 303.077 237.34 302.864 237.116C302.656 236.887 302.36 236.772 301.976 236.772C301.688 236.772 301.437 236.833 301.224 236.956C301.016 237.073 300.853 237.247 300.736 237.476C300.624 237.7 300.568 237.972 300.568 238.292V240.5H300V238.116C300 237.673 299.893 237.34 299.68 237.116C299.466 236.887 299.168 236.772 298.784 236.772C298.501 236.772 298.253 236.833 298.04 236.956C297.826 237.073 297.661 237.247 297.544 237.476C297.432 237.7 297.376 237.972 297.376 238.292V240.5H296.808V236.3H297.352V237.436L297.264 237.236C297.392 236.932 297.597 236.695 297.88 236.524C298.168 236.348 298.506 236.26 298.896 236.26C299.306 236.26 299.656 236.364 299.944 236.572C300.232 236.775 300.418 237.081 300.504 237.492L300.28 237.404C300.402 237.063 300.618 236.788 300.928 236.58C301.242 236.367 301.618 236.26 302.056 236.26Z" fill="#232738"/>
<path d="M81.44 283L85.22 274.6H86.756L90.548 283H88.916L85.664 275.428H86.288L83.048 283H81.44ZM83.18 281.056L83.6 279.832H88.136L88.556 281.056H83.18ZM95.0243 283.084C94.5043 283.084 94.0283 282.964 93.5963 282.724C93.1723 282.484 92.8323 282.124 92.5763 281.644C92.3283 281.156 92.2043 280.54 92.2043 279.796C92.2043 279.044 92.3243 278.428 92.5643 277.948C92.8123 277.468 93.1483 277.112 93.5723 276.88C93.9963 276.64 94.4803 276.52 95.0243 276.52C95.6563 276.52 96.2123 276.656 96.6923 276.928C97.1803 277.2 97.5643 277.58 97.8443 278.068C98.1323 278.556 98.2763 279.132 98.2763 279.796C98.2763 280.46 98.1323 281.04 97.8443 281.536C97.5643 282.024 97.1803 282.404 96.6923 282.676C96.2123 282.948 95.6563 283.084 95.0243 283.084ZM91.4723 285.328V276.592H92.9003V278.104L92.8523 279.808L92.9723 281.512V285.328H91.4723ZM94.8563 281.8C95.2163 281.8 95.5363 281.72 95.8163 281.56C96.1043 281.4 96.3323 281.168 96.5003 280.864C96.6683 280.56 96.7523 280.204 96.7523 279.796C96.7523 279.38 96.6683 279.024 96.5003 278.728C96.3323 278.424 96.1043 278.192 95.8163 278.032C95.5363 277.872 95.2163 277.792 94.8563 277.792C94.4963 277.792 94.1723 277.872 93.8843 278.032C93.5963 278.192 93.3683 278.424 93.2003 278.728C93.0323 279.024 92.9483 279.38 92.9483 279.796C92.9483 280.204 93.0323 280.56 93.2003 280.864C93.3683 281.168 93.5963 281.4 93.8843 281.56C94.1723 281.72 94.4963 281.8 94.8563 281.8ZM103.251 283.084C102.731 283.084 102.255 282.964 101.823 282.724C101.399 282.484 101.059 282.124 100.803 281.644C100.555 281.156 100.431 280.54 100.431 279.796C100.431 279.044 100.551 278.428 100.791 277.948C101.039 277.468 101.375 277.112 101.799 276.88C102.223 276.64 102.707 276.52 103.251 276.52C103.883 276.52 104.439 276.656 104.919 276.928C105.407 277.2 105.791 277.58 106.071 278.068C106.359 278.556 106.503 279.132 106.503 279.796C106.503 280.46 106.359 281.04 106.071 281.536C105.791 282.024 105.407 282.404 104.919 282.676C104.439 282.948 103.883 283.084 103.251 283.084ZM99.6988 285.328V276.592H101.127V278.104L101.079 279.808L101.199 281.512V285.328H99.6988ZM103.083 281.8C103.443 281.8 103.763 281.72 104.043 281.56C104.331 281.4 104.559 281.168 104.727 280.864C104.895 280.56 104.979 280.204 104.979 279.796C104.979 279.38 104.895 279.024 104.727 278.728C104.559 278.424 104.331 278.192 104.043 278.032C103.763 277.872 103.443 277.792 103.083 277.792C102.723 277.792 102.399 277.872 102.111 278.032C101.823 278.192 101.595 278.424 101.427 278.728C101.259 279.024 101.175 279.38 101.175 279.796C101.175 280.204 101.259 280.56 101.427 280.864C101.595 281.168 101.823 281.4 102.111 281.56C102.399 281.72 102.723 281.8 103.083 281.8ZM107.925 283V274.096H109.425V283H107.925ZM111.394 283V276.592H112.894V283H111.394ZM112.15 275.536C111.87 275.536 111.638 275.448 111.454 275.272C111.278 275.096 111.19 274.884 111.19 274.636C111.19 274.38 111.278 274.168 111.454 274C111.638 273.824 111.87 273.736 112.15 273.736C112.43 273.736 112.658 273.82 112.834 273.988C113.018 274.148 113.11 274.352 113.11 274.6C113.11 274.864 113.022 275.088 112.846 275.272C112.67 275.448 112.438 275.536 112.15 275.536ZM117.803 283.084C117.131 283.084 116.531 282.944 116.003 282.664C115.483 282.376 115.075 281.984 114.779 281.488C114.483 280.992 114.335 280.428 114.335 279.796C114.335 279.156 114.483 278.592 114.779 278.104C115.075 277.608 115.483 277.22 116.003 276.94C116.531 276.66 117.131 276.52 117.803 276.52C118.427 276.52 118.975 276.648 119.447 276.904C119.927 277.152 120.291 277.52 120.539 278.008L119.387 278.68C119.195 278.376 118.959 278.152 118.679 278.008C118.407 277.864 118.111 277.792 117.791 277.792C117.423 277.792 117.091 277.872 116.795 278.032C116.499 278.192 116.267 278.424 116.099 278.728C115.931 279.024 115.847 279.38 115.847 279.796C115.847 280.212 115.931 280.572 116.099 280.876C116.267 281.172 116.499 281.4 116.795 281.56C117.091 281.72 117.423 281.8 117.791 281.8C118.111 281.8 118.407 281.728 118.679 281.584C118.959 281.44 119.195 281.216 119.387 280.912L120.539 281.584C120.291 282.064 119.927 282.436 119.447 282.7C118.975 282.956 118.427 283.084 117.803 283.084ZM125.784 283V281.704L125.7 281.428V279.16C125.7 278.72 125.568 278.38 125.304 278.14C125.04 277.892 124.64 277.768 124.104 277.768C123.744 277.768 123.388 277.824 123.036 277.936C122.692 278.048 122.4 278.204 122.16 278.404L121.572 277.312C121.916 277.048 122.324 276.852 122.796 276.724C123.276 276.588 123.772 276.52 124.284 276.52C125.212 276.52 125.928 276.744 126.432 277.192C126.944 277.632 127.2 278.316 127.2 279.244V283H125.784ZM123.768 283.084C123.288 283.084 122.868 283.004 122.508 282.844C122.148 282.676 121.868 282.448 121.668 282.16C121.476 281.864 121.38 281.532 121.38 281.164C121.38 280.804 121.464 280.48 121.632 280.192C121.808 279.904 122.092 279.676 122.484 279.508C122.876 279.34 123.396 279.256 124.044 279.256H125.904V280.252H124.152C123.64 280.252 123.296 280.336 123.12 280.504C122.944 280.664 122.856 280.864 122.856 281.104C122.856 281.376 122.964 281.592 123.18 281.752C123.396 281.912 123.696 281.992 124.08 281.992C124.448 281.992 124.776 281.908 125.064 281.74C125.36 281.572 125.572 281.324 125.7 280.996L125.952 281.896C125.808 282.272 125.548 282.564 125.172 282.772C124.804 282.98 124.336 283.084 123.768 283.084ZM131.537 283.084C130.833 283.084 130.289 282.904 129.905 282.544C129.521 282.176 129.329 281.636 129.329 280.924V275.176H130.829V280.888C130.829 281.192 130.905 281.428 131.057 281.596C131.217 281.764 131.437 281.848 131.717 281.848C132.053 281.848 132.333 281.76 132.557 281.584L132.977 282.652C132.801 282.796 132.585 282.904 132.329 282.976C132.073 283.048 131.809 283.084 131.537 283.084ZM128.273 277.84V276.64H132.545V277.84H128.273ZM134.211 283V276.592H135.711V283H134.211ZM134.967 275.536C134.687 275.536 134.455 275.448 134.271 275.272C134.095 275.096 134.007 274.884 134.007 274.636C134.007 274.38 134.095 274.168 134.271 274C134.455 273.824 134.687 273.736 134.967 273.736C135.247 273.736 135.475 273.82 135.651 273.988C135.835 274.148 135.927 274.352 135.927 274.6C135.927 274.864 135.839 275.088 135.663 275.272C135.487 275.448 135.255 275.536 134.967 275.536ZM140.559 283.084C139.903 283.084 139.319 282.944 138.807 282.664C138.295 282.376 137.891 281.984 137.595 281.488C137.299 280.992 137.151 280.428 137.151 279.796C137.151 279.156 137.299 278.592 137.595 278.104C137.891 277.608 138.295 277.22 138.807 276.94C139.319 276.66 139.903 276.52 140.559 276.52C141.223 276.52 141.811 276.66 142.323 276.94C142.843 277.22 143.247 277.604 143.535 278.092C143.831 278.58 143.979 279.148 143.979 279.796C143.979 280.428 143.831 280.992 143.535 281.488C143.247 281.984 142.843 282.376 142.323 282.664C141.811 282.944 141.223 283.084 140.559 283.084ZM140.559 281.8C140.927 281.8 141.255 281.72 141.543 281.56C141.831 281.4 142.055 281.168 142.215 280.864C142.383 280.56 142.467 280.204 142.467 279.796C142.467 279.38 142.383 279.024 142.215 278.728C142.055 278.424 141.831 278.192 141.543 278.032C141.255 277.872 140.931 277.792 140.571 277.792C140.203 277.792 139.875 277.872 139.587 278.032C139.307 278.192 139.083 278.424 138.915 278.728C138.747 279.024 138.663 279.38 138.663 279.796C138.663 280.204 138.747 280.56 138.915 280.864C139.083 281.168 139.307 281.4 139.587 281.56C139.875 281.72 140.199 281.8 140.559 281.8ZM149.05 276.52C149.562 276.52 150.018 276.62 150.418 276.82C150.826 277.02 151.146 277.328 151.378 277.744C151.61 278.152 151.726 278.68 151.726 279.328V283H150.226V279.52C150.226 278.952 150.09 278.528 149.818 278.248C149.554 277.968 149.182 277.828 148.702 277.828C148.35 277.828 148.038 277.9 147.766 278.044C147.494 278.188 147.282 278.404 147.13 278.692C146.986 278.972 146.914 279.328 146.914 279.76V283H145.414V276.592H146.842V278.32L146.59 277.792C146.814 277.384 147.138 277.072 147.562 276.856C147.994 276.632 148.49 276.52 149.05 276.52ZM159.693 283.12C159.037 283.12 158.409 283.028 157.809 282.844C157.209 282.652 156.733 282.408 156.381 282.112L156.921 280.9C157.257 281.164 157.673 281.384 158.169 281.56C158.665 281.736 159.173 281.824 159.693 281.824C160.133 281.824 160.489 281.776 160.761 281.68C161.033 281.584 161.233 281.456 161.361 281.296C161.489 281.128 161.553 280.94 161.553 280.732C161.553 280.476 161.461 280.272 161.277 280.12C161.093 279.96 160.853 279.836 160.557 279.748C160.269 279.652 159.945 279.564 159.585 279.484C159.233 279.404 158.877 279.312 158.517 279.208C158.165 279.096 157.841 278.956 157.545 278.788C157.257 278.612 157.021 278.38 156.837 278.092C156.653 277.804 156.561 277.436 156.561 276.988C156.561 276.532 156.681 276.116 156.921 275.74C157.169 275.356 157.541 275.052 158.037 274.828C158.541 274.596 159.177 274.48 159.945 274.48C160.449 274.48 160.949 274.544 161.445 274.672C161.941 274.8 162.373 274.984 162.741 275.224L162.249 276.436C161.873 276.212 161.485 276.048 161.085 275.944C160.685 275.832 160.301 275.776 159.933 275.776C159.501 275.776 159.149 275.828 158.877 275.932C158.613 276.036 158.417 276.172 158.289 276.34C158.169 276.508 158.109 276.7 158.109 276.916C158.109 277.172 158.197 277.38 158.373 277.54C158.557 277.692 158.793 277.812 159.081 277.9C159.377 277.988 159.705 278.076 160.065 278.164C160.425 278.244 160.781 278.336 161.133 278.44C161.493 278.544 161.817 278.68 162.105 278.848C162.401 279.016 162.637 279.244 162.813 279.532C162.997 279.82 163.089 280.184 163.089 280.624C163.089 281.072 162.965 281.488 162.717 281.872C162.477 282.248 162.105 282.552 161.601 282.784C161.097 283.008 160.461 283.12 159.693 283.12ZM166.904 283.084C166.2 283.084 165.656 282.904 165.272 282.544C164.888 282.176 164.696 281.636 164.696 280.924V275.176H166.196V280.888C166.196 281.192 166.272 281.428 166.424 281.596C166.584 281.764 166.804 281.848 167.084 281.848C167.42 281.848 167.7 281.76 167.924 281.584L168.344 282.652C168.168 282.796 167.952 282.904 167.696 282.976C167.44 283.048 167.176 283.084 166.904 283.084ZM163.64 277.84V276.64H167.912V277.84H163.64ZM173.526 283V281.704L173.442 281.428V279.16C173.442 278.72 173.31 278.38 173.046 278.14C172.782 277.892 172.382 277.768 171.846 277.768C171.486 277.768 171.13 277.824 170.778 277.936C170.434 278.048 170.142 278.204 169.902 278.404L169.314 277.312C169.658 277.048 170.066 276.852 170.538 276.724C171.018 276.588 171.514 276.52 172.026 276.52C172.954 276.52 173.67 276.744 174.174 277.192C174.686 277.632 174.942 278.316 174.942 279.244V283H173.526ZM171.51 283.084C171.03 283.084 170.61 283.004 170.25 282.844C169.89 282.676 169.61 282.448 169.41 282.16C169.218 281.864 169.122 281.532 169.122 281.164C169.122 280.804 169.206 280.48 169.374 280.192C169.55 279.904 169.834 279.676 170.226 279.508C170.618 279.34 171.138 279.256 171.786 279.256H173.646V280.252H171.894C171.382 280.252 171.038 280.336 170.862 280.504C170.686 280.664 170.598 280.864 170.598 281.104C170.598 281.376 170.706 281.592 170.922 281.752C171.138 281.912 171.438 281.992 171.822 281.992C172.19 281.992 172.518 281.908 172.806 281.74C173.102 281.572 173.314 281.324 173.442 280.996L173.694 281.896C173.55 282.272 173.29 282.564 172.914 282.772C172.546 282.98 172.078 283.084 171.51 283.084ZM179.279 283.084C178.575 283.084 178.031 282.904 177.647 282.544C177.263 282.176 177.071 281.636 177.071 280.924V275.176H178.571V280.888C178.571 281.192 178.647 281.428 178.799 281.596C178.959 281.764 179.179 281.848 179.459 281.848C179.795 281.848 180.075 281.76 180.299 281.584L180.719 282.652C180.543 282.796 180.327 282.904 180.071 282.976C179.815 283.048 179.551 283.084 179.279 283.084ZM176.015 277.84V276.64H180.287V277.84H176.015ZM184.665 283.084C184.121 283.084 183.641 282.984 183.225 282.784C182.809 282.576 182.485 282.264 182.253 281.848C182.021 281.424 181.905 280.892 181.905 280.252V276.592H183.405V280.048C183.405 280.624 183.533 281.056 183.789 281.344C184.053 281.624 184.425 281.764 184.905 281.764C185.257 281.764 185.561 281.692 185.817 281.548C186.081 281.404 186.285 281.188 186.429 280.9C186.581 280.612 186.657 280.256 186.657 279.832V276.592H188.157V283H186.729V281.272L186.981 281.8C186.765 282.216 186.449 282.536 186.033 282.76C185.617 282.976 185.161 283.084 184.665 283.084ZM192.101 283.084C191.565 283.084 191.049 283.016 190.553 282.88C190.065 282.736 189.677 282.564 189.389 282.364L189.965 281.224C190.253 281.408 190.597 281.56 190.997 281.68C191.397 281.8 191.797 281.86 192.197 281.86C192.669 281.86 193.009 281.796 193.217 281.668C193.433 281.54 193.541 281.368 193.541 281.152C193.541 280.976 193.469 280.844 193.325 280.756C193.181 280.66 192.993 280.588 192.761 280.54C192.529 280.492 192.269 280.448 191.981 280.408C191.701 280.368 191.417 280.316 191.129 280.252C190.849 280.18 190.593 280.08 190.361 279.952C190.129 279.816 189.941 279.636 189.797 279.412C189.653 279.188 189.581 278.892 189.581 278.524C189.581 278.116 189.697 277.764 189.929 277.468C190.161 277.164 190.485 276.932 190.901 276.772C191.325 276.604 191.825 276.52 192.401 276.52C192.833 276.52 193.269 276.568 193.709 276.664C194.149 276.76 194.513 276.896 194.801 277.072L194.225 278.212C193.921 278.028 193.613 277.904 193.301 277.84C192.997 277.768 192.693 277.732 192.389 277.732C191.933 277.732 191.593 277.8 191.369 277.936C191.153 278.072 191.045 278.244 191.045 278.452C191.045 278.644 191.117 278.788 191.261 278.884C191.405 278.98 191.593 279.056 191.825 279.112C192.057 279.168 192.313 279.216 192.593 279.256C192.881 279.288 193.165 279.34 193.445 279.412C193.725 279.484 193.981 279.584 194.213 279.712C194.453 279.832 194.645 280.004 194.789 280.228C194.933 280.452 195.005 280.744 195.005 281.104C195.005 281.504 194.885 281.852 194.645 282.148C194.413 282.444 194.081 282.676 193.649 282.844C193.217 283.004 192.701 283.084 192.101 283.084Z" fill="#232738"/>
<path d="M84.31 303V300.4L84.48 300.86L81.51 296H82.3L84.91 300.27H84.49L87.1 296H87.84L84.87 300.86L85.04 300.4V303H84.31ZM90.382 303.05C89.8753 303.05 89.4186 302.937 89.012 302.71C88.612 302.477 88.2953 302.16 88.062 301.76C87.8286 301.353 87.712 300.89 87.712 300.37C87.712 299.843 87.8286 299.38 88.062 298.98C88.2953 298.58 88.612 298.267 89.012 298.04C89.412 297.813 89.8686 297.7 90.382 297.7C90.902 297.7 91.362 297.813 91.762 298.04C92.1686 298.267 92.4853 298.58 92.712 298.98C92.9453 299.38 93.062 299.843 93.062 300.37C93.062 300.89 92.9453 301.353 92.712 301.76C92.4853 302.16 92.1686 302.477 91.762 302.71C91.3553 302.937 90.8953 303.05 90.382 303.05ZM90.382 302.42C90.762 302.42 91.0986 302.337 91.392 302.17C91.6853 301.997 91.9153 301.757 92.082 301.45C92.2553 301.137 92.342 300.777 92.342 300.37C92.342 299.957 92.2553 299.597 92.082 299.29C91.9153 298.983 91.6853 298.747 91.392 298.58C91.0986 298.407 90.7653 298.32 90.392 298.32C90.0186 298.32 89.6853 298.407 89.392 298.58C89.0986 298.747 88.8653 298.983 88.692 299.29C88.5186 299.597 88.432 299.957 88.432 300.37C88.432 300.777 88.5186 301.137 88.692 301.45C88.8653 301.757 89.0986 301.997 89.392 302.17C89.6853 302.337 90.0153 302.42 90.382 302.42ZM96.6815 303.05C96.2348 303.05 95.8448 302.967 95.5115 302.8C95.1782 302.633 94.9182 302.383 94.7315 302.05C94.5515 301.717 94.4615 301.3 94.4615 300.8V297.75H95.1715V300.72C95.1715 301.28 95.3082 301.703 95.5815 301.99C95.8615 302.27 96.2515 302.41 96.7515 302.41C97.1182 302.41 97.4348 302.337 97.7015 302.19C97.9748 302.037 98.1815 301.817 98.3215 301.53C98.4682 301.243 98.5415 300.9 98.5415 300.5V297.75H99.2515V303H98.5715V301.56L98.6815 301.82C98.5148 302.207 98.2548 302.51 97.9015 302.73C97.5548 302.943 97.1482 303.05 96.6815 303.05ZM101.23 303V297.75H101.91V299.18L101.84 298.93C101.987 298.53 102.234 298.227 102.58 298.02C102.927 297.807 103.357 297.7 103.87 297.7V298.39C103.844 298.39 103.817 298.39 103.79 298.39C103.764 298.383 103.737 298.38 103.71 298.38C103.157 298.38 102.724 298.55 102.41 298.89C102.097 299.223 101.94 299.7 101.94 300.32V303H101.23ZM111.151 303V301.84L111.121 301.65V299.71C111.121 299.263 110.994 298.92 110.741 298.68C110.494 298.44 110.124 298.32 109.631 298.32C109.291 298.32 108.968 298.377 108.661 298.49C108.354 298.603 108.094 298.753 107.881 298.94L107.561 298.41C107.828 298.183 108.148 298.01 108.521 297.89C108.894 297.763 109.288 297.7 109.701 297.7C110.381 297.7 110.904 297.87 111.271 298.21C111.644 298.543 111.831 299.053 111.831 299.74V303H111.151ZM109.341 303.05C108.948 303.05 108.604 302.987 108.311 302.86C108.024 302.727 107.804 302.547 107.651 302.32C107.498 302.087 107.421 301.82 107.421 301.52C107.421 301.247 107.484 301 107.611 300.78C107.744 300.553 107.958 300.373 108.251 300.24C108.551 300.1 108.951 300.03 109.451 300.03H111.261V300.56H109.471C108.964 300.56 108.611 300.65 108.411 300.83C108.218 301.01 108.121 301.233 108.121 301.5C108.121 301.8 108.238 302.04 108.471 302.22C108.704 302.4 109.031 302.49 109.451 302.49C109.851 302.49 110.194 302.4 110.481 302.22C110.774 302.033 110.988 301.767 111.121 301.42L111.281 301.91C111.148 302.257 110.914 302.533 110.581 302.74C110.254 302.947 109.841 303.05 109.341 303.05ZM116.47 303.05C116.016 303.05 115.606 302.947 115.24 302.74C114.873 302.527 114.58 302.223 114.36 301.83C114.146 301.43 114.04 300.943 114.04 300.37C114.04 299.797 114.146 299.313 114.36 298.92C114.573 298.52 114.863 298.217 115.23 298.01C115.596 297.803 116.01 297.7 116.47 297.7C116.97 297.7 117.416 297.813 117.81 298.04C118.21 298.26 118.523 298.573 118.75 298.98C118.976 299.38 119.09 299.843 119.09 300.37C119.09 300.903 118.976 301.37 118.75 301.77C118.523 302.17 118.21 302.483 117.81 302.71C117.416 302.937 116.97 303.05 116.47 303.05ZM113.76 304.94V297.75H114.44V299.33L114.37 300.38L114.47 301.44V304.94H113.76ZM116.42 302.42C116.793 302.42 117.126 302.337 117.42 302.17C117.713 301.997 117.946 301.757 118.12 301.45C118.293 301.137 118.38 300.777 118.38 300.37C118.38 299.963 118.293 299.607 118.12 299.3C117.946 298.993 117.713 298.753 117.42 298.58C117.126 298.407 116.793 298.32 116.42 298.32C116.046 298.32 115.71 298.407 115.41 298.58C115.116 298.753 114.883 298.993 114.71 299.3C114.543 299.607 114.46 299.963 114.46 300.37C114.46 300.777 114.543 301.137 114.71 301.45C114.883 301.757 115.116 301.997 115.41 302.17C115.71 302.337 116.046 302.42 116.42 302.42ZM123.247 303.05C122.794 303.05 122.384 302.947 122.017 302.74C121.65 302.527 121.357 302.223 121.137 301.83C120.924 301.43 120.817 300.943 120.817 300.37C120.817 299.797 120.924 299.313 121.137 298.92C121.35 298.52 121.64 298.217 122.007 298.01C122.374 297.803 122.787 297.7 123.247 297.7C123.747 297.7 124.194 297.813 124.587 298.04C124.987 298.26 125.3 298.573 125.527 298.98C125.754 299.38 125.867 299.843 125.867 300.37C125.867 300.903 125.754 301.37 125.527 301.77C125.3 302.17 124.987 302.483 124.587 302.71C124.194 302.937 123.747 303.05 123.247 303.05ZM120.537 304.94V297.75H121.217V299.33L121.147 300.38L121.247 301.44V304.94H120.537ZM123.197 302.42C123.57 302.42 123.904 302.337 124.197 302.17C124.49 301.997 124.724 301.757 124.897 301.45C125.07 301.137 125.157 300.777 125.157 300.37C125.157 299.963 125.07 299.607 124.897 299.3C124.724 298.993 124.49 298.753 124.197 298.58C123.904 298.407 123.57 298.32 123.197 298.32C122.824 298.32 122.487 298.407 122.187 298.58C121.894 298.753 121.66 298.993 121.487 299.3C121.32 299.607 121.237 299.963 121.237 300.37C121.237 300.777 121.32 301.137 121.487 301.45C121.66 301.757 121.894 301.997 122.187 302.17C122.487 302.337 122.824 302.42 123.197 302.42ZM127.314 303V295.58H128.024V303H127.314ZM130 303V297.75H130.71V303H130ZM130.36 296.59C130.213 296.59 130.09 296.54 129.99 296.44C129.89 296.34 129.84 296.22 129.84 296.08C129.84 295.94 129.89 295.823 129.99 295.73C130.09 295.63 130.213 295.58 130.36 295.58C130.506 295.58 130.63 295.627 130.73 295.72C130.83 295.813 130.88 295.93 130.88 296.07C130.88 296.217 130.83 296.34 130.73 296.44C130.636 296.54 130.513 296.59 130.36 296.59ZM134.865 303.05C134.345 303.05 133.879 302.937 133.465 302.71C133.059 302.477 132.739 302.16 132.505 301.76C132.272 301.353 132.155 300.89 132.155 300.37C132.155 299.843 132.272 299.38 132.505 298.98C132.739 298.58 133.059 298.267 133.465 298.04C133.879 297.813 134.345 297.7 134.865 297.7C135.312 297.7 135.715 297.787 136.075 297.96C136.435 298.133 136.719 298.393 136.925 298.74L136.395 299.1C136.215 298.833 135.992 298.637 135.725 298.51C135.459 298.383 135.169 298.32 134.855 298.32C134.482 298.32 134.145 298.407 133.845 298.58C133.545 298.747 133.309 298.983 133.135 299.29C132.962 299.597 132.875 299.957 132.875 300.37C132.875 300.783 132.962 301.143 133.135 301.45C133.309 301.757 133.545 301.997 133.845 302.17C134.145 302.337 134.482 302.42 134.855 302.42C135.169 302.42 135.459 302.357 135.725 302.23C135.992 302.103 136.215 301.91 136.395 301.65L136.925 302.01C136.719 302.35 136.435 302.61 136.075 302.79C135.715 302.963 135.312 303.05 134.865 303.05ZM141.61 303V301.84L141.58 301.65V299.71C141.58 299.263 141.453 298.92 141.2 298.68C140.953 298.44 140.583 298.32 140.09 298.32C139.75 298.32 139.427 298.377 139.12 298.49C138.813 298.603 138.553 298.753 138.34 298.94L138.02 298.41C138.287 298.183 138.607 298.01 138.98 297.89C139.353 297.763 139.747 297.7 140.16 297.7C140.84 297.7 141.363 297.87 141.73 298.21C142.103 298.543 142.29 299.053 142.29 299.74V303H141.61ZM139.8 303.05C139.407 303.05 139.063 302.987 138.77 302.86C138.483 302.727 138.263 302.547 138.11 302.32C137.957 302.087 137.88 301.82 137.88 301.52C137.88 301.247 137.943 301 138.07 300.78C138.203 300.553 138.417 300.373 138.71 300.24C139.01 300.1 139.41 300.03 139.91 300.03H141.72V300.56H139.93C139.423 300.56 139.07 300.65 138.87 300.83C138.677 301.01 138.58 301.233 138.58 301.5C138.58 301.8 138.697 302.04 138.93 302.22C139.163 302.4 139.49 302.49 139.91 302.49C140.31 302.49 140.653 302.4 140.94 302.22C141.233 302.033 141.447 301.767 141.58 301.42L141.74 301.91C141.607 302.257 141.373 302.533 141.04 302.74C140.713 302.947 140.3 303.05 139.8 303.05ZM145.879 303.05C145.385 303.05 145.005 302.917 144.739 302.65C144.472 302.383 144.339 302.007 144.339 301.52V296.59H145.049V301.48C145.049 301.787 145.125 302.023 145.279 302.19C145.439 302.357 145.665 302.44 145.959 302.44C146.272 302.44 146.532 302.35 146.739 302.17L146.989 302.68C146.849 302.807 146.679 302.9 146.479 302.96C146.285 303.02 146.085 303.05 145.879 303.05ZM143.399 298.34V297.75H146.649V298.34H143.399ZM148.281 303V297.75H148.991V303H148.281ZM148.641 296.59C148.494 296.59 148.371 296.54 148.271 296.44C148.171 296.34 148.121 296.22 148.121 296.08C148.121 295.94 148.171 295.823 148.271 295.73C148.371 295.63 148.494 295.58 148.641 295.58C148.788 295.58 148.911 295.627 149.011 295.72C149.111 295.813 149.161 295.93 149.161 296.07C149.161 296.217 149.111 296.34 149.011 296.44C148.918 296.54 148.794 296.59 148.641 296.59ZM153.107 303.05C152.6 303.05 152.143 302.937 151.737 302.71C151.337 302.477 151.02 302.16 150.787 301.76C150.553 301.353 150.437 300.89 150.437 300.37C150.437 299.843 150.553 299.38 150.787 298.98C151.02 298.58 151.337 298.267 151.737 298.04C152.137 297.813 152.593 297.7 153.107 297.7C153.627 297.7 154.087 297.813 154.487 298.04C154.893 298.267 155.21 298.58 155.437 298.98C155.67 299.38 155.787 299.843 155.787 300.37C155.787 300.89 155.67 301.353 155.437 301.76C155.21 302.16 154.893 302.477 154.487 302.71C154.08 302.937 153.62 303.05 153.107 303.05ZM153.107 302.42C153.487 302.42 153.823 302.337 154.117 302.17C154.41 301.997 154.64 301.757 154.807 301.45C154.98 301.137 155.067 300.777 155.067 300.37C155.067 299.957 154.98 299.597 154.807 299.29C154.64 298.983 154.41 298.747 154.117 298.58C153.823 298.407 153.49 298.32 153.117 298.32C152.743 298.32 152.41 298.407 152.117 298.58C151.823 298.747 151.59 298.983 151.417 299.29C151.243 299.597 151.157 299.957 151.157 300.37C151.157 300.777 151.243 301.137 151.417 301.45C151.59 301.757 151.823 301.997 152.117 302.17C152.41 302.337 152.74 302.42 153.107 302.42ZM159.916 297.7C160.343 297.7 160.716 297.783 161.036 297.95C161.363 298.11 161.616 298.357 161.796 298.69C161.983 299.023 162.076 299.443 162.076 299.95V303H161.366V300.02C161.366 299.467 161.226 299.05 160.946 298.77C160.673 298.483 160.286 298.34 159.786 298.34C159.413 298.34 159.086 298.417 158.806 298.57C158.533 298.717 158.319 298.933 158.166 299.22C158.019 299.5 157.946 299.84 157.946 300.24V303H157.236V297.75H157.916V299.19L157.806 298.92C157.973 298.54 158.239 298.243 158.606 298.03C158.973 297.81 159.409 297.7 159.916 297.7ZM166.731 303V297.09C166.731 296.623 166.868 296.247 167.141 295.96C167.414 295.673 167.808 295.53 168.321 295.53C168.521 295.53 168.714 295.557 168.901 295.61C169.088 295.663 169.244 295.747 169.371 295.86L169.131 296.39C169.031 296.303 168.914 296.24 168.781 296.2C168.648 296.153 168.504 296.13 168.351 296.13C168.051 296.13 167.821 296.213 167.661 296.38C167.501 296.547 167.421 296.793 167.421 297.12V297.92L167.441 298.25V303H166.731ZM165.791 298.34V297.75H169.041V298.34H165.791ZM172.052 303.05C171.545 303.05 171.089 302.937 170.682 302.71C170.282 302.477 169.965 302.16 169.732 301.76C169.499 301.353 169.382 300.89 169.382 300.37C169.382 299.843 169.499 299.38 169.732 298.98C169.965 298.58 170.282 298.267 170.682 298.04C171.082 297.813 171.539 297.7 172.052 297.7C172.572 297.7 173.032 297.813 173.432 298.04C173.839 298.267 174.155 298.58 174.382 298.98C174.615 299.38 174.732 299.843 174.732 300.37C174.732 300.89 174.615 301.353 174.382 301.76C174.155 302.16 173.839 302.477 173.432 302.71C173.025 302.937 172.565 303.05 172.052 303.05ZM172.052 302.42C172.432 302.42 172.769 302.337 173.062 302.17C173.355 301.997 173.585 301.757 173.752 301.45C173.925 301.137 174.012 300.777 174.012 300.37C174.012 299.957 173.925 299.597 173.752 299.29C173.585 298.983 173.355 298.747 173.062 298.58C172.769 298.407 172.435 298.32 172.062 298.32C171.689 298.32 171.355 298.407 171.062 298.58C170.769 298.747 170.535 298.983 170.362 299.29C170.189 299.597 170.102 299.957 170.102 300.37C170.102 300.777 170.189 301.137 170.362 301.45C170.535 301.757 170.769 301.997 171.062 302.17C171.355 302.337 171.685 302.42 172.052 302.42ZM176.181 303V297.75H176.861V299.18L176.791 298.93C176.938 298.53 177.185 298.227 177.531 298.02C177.878 297.807 178.308 297.7 178.821 297.7V298.39C178.795 298.39 178.768 298.39 178.741 298.39C178.715 298.383 178.688 298.38 178.661 298.38C178.108 298.38 177.675 298.55 177.361 298.89C177.048 299.223 176.891 299.7 176.891 300.32V303H176.181ZM180.167 303.05C180.021 303.05 179.894 302.997 179.787 302.89C179.687 302.783 179.637 302.653 179.637 302.5C179.637 302.34 179.687 302.21 179.787 302.11C179.894 302.01 180.021 301.96 180.167 301.96C180.314 301.96 180.437 302.01 180.537 302.11C180.644 302.21 180.697 302.34 180.697 302.5C180.697 302.653 180.644 302.783 180.537 302.89C180.437 302.997 180.314 303.05 180.167 303.05ZM182.287 303.05C182.14 303.05 182.013 302.997 181.907 302.89C181.807 302.783 181.757 302.653 181.757 302.5C181.757 302.34 181.807 302.21 181.907 302.11C182.013 302.01 182.14 301.96 182.287 301.96C182.433 301.96 182.557 302.01 182.657 302.11C182.763 302.21 182.817 302.34 182.817 302.5C182.817 302.653 182.763 302.783 182.657 302.89C182.557 302.997 182.433 303.05 182.287 303.05ZM184.406 303.05C184.259 303.05 184.132 302.997 184.026 302.89C183.926 302.783 183.876 302.653 183.876 302.5C183.876 302.34 183.926 302.21 184.026 302.11C184.132 302.01 184.259 301.96 184.406 301.96C184.552 301.96 184.676 302.01 184.776 302.11C184.882 302.21 184.936 302.34 184.936 302.5C184.936 302.653 184.882 302.783 184.776 302.89C184.676 302.997 184.552 303.05 184.406 303.05Z" fill="#232738"/>
<g clip-path="url(#clip0_1326_1015)">
<path d="M278.67 281C278.819 280.999 278.967 281.032 279.102 281.096C279.237 281.161 279.356 281.254 279.45 281.37L284.28 287.37C284.427 287.549 284.507 287.773 284.507 288.005C284.507 288.237 284.427 288.461 284.28 288.64L279.28 294.64C279.11 294.844 278.866 294.973 278.602 294.997C278.337 295.021 278.074 294.94 277.87 294.77C277.666 294.6 277.537 294.356 277.513 294.092C277.489 293.827 277.57 293.564 277.74 293.36L282.21 288L277.89 282.64C277.768 282.493 277.69 282.314 277.666 282.125C277.642 281.935 277.673 281.743 277.755 281.57C277.837 281.398 277.967 281.252 278.129 281.151C278.291 281.05 278.479 280.998 278.67 281Z" fill="#232738"/>
</g>
<rect x="61" y="201" width="264" height="123" rx="6" stroke="#CCDFF2" stroke-width="2" shape-rendering="crispEdges"/>
</g>
<defs>
<filter id="filter0_d_1326_1015" x="-190" y="0" width="766" height="625" filterUnits="userSpaceOnUse" color-interpolation-filters="sRGB">
<feFlood flood-opacity="0" result="BackgroundImageFix"/>
<feColorMatrix in="SourceAlpha" type="matrix" values="0 0 0 0 0 0 0 0 0 0 0 0 0 0 0 0 0 0 127 0" result="hardAlpha"/>
<feOffset dy="50"/>
<feGaussianBlur stdDeviation="125"/>
<feComposite in2="hardAlpha" operator="out"/>
<feColorMatrix type="matrix" values="0 0 0 0 0 0 0 0 0 0 0 0 0 0 0 0 0 0 0.15 0"/>
<feBlend mode="normal" in2="BackgroundImageFix" result="effect1_dropShadow_1326_1015"/>
<feBlend mode="normal" in="SourceGraphic" in2="effect1_dropShadow_1326_1015" result="shape"/>
</filter>
<clipPath id="clip0_1326_1015">
<rect width="24" height="24" fill="white" transform="translate(292.5 300) rotate(180)"/>
</clipPath>
</defs>
</svg>
