<svg width="573" height="614" viewBox="0 0 573 614" fill="none" xmlns="http://www.w3.org/2000/svg">
<path fill-rule="evenodd" clip-rule="evenodd" d="M306.657 1.22448C367.506 -4.17723 432.257 8.73547 479.286 47.7246C525.039 85.6564 536.85 148.097 552.854 205.334C568.155 260.052 576.926 314.423 569.614 370.768C560.817 438.568 556.987 514.357 506.74 560.719C454.781 608.66 377.342 612.129 306.657 613.392C234.806 614.675 153.081 617.801 101.313 567.96C50.6364 519.17 69.0214 436.335 51.8892 368.107C36.3838 306.358 -15.419 247.6 5.79664 187.573C26.9701 127.665 100.929 109.974 154.946 76.5166C204.145 46.0436 249.012 6.3417 306.657 1.22448Z" fill="url(#paint0_linear_1_3)"/>
<defs>
<linearGradient id="paint0_linear_1_3" x1="286.5" y1="0.0533752" x2="286.5" y2="613.947" gradientUnits="userSpaceOnUse">
<stop stop-color="#E86767"/>
<stop offset="0.557292" stop-color="#DB9F73" stop-opacity="0.640625"/>
<stop offset="1" stop-color="#E89D0D" stop-opacity="0.54"/>
</linearGradient>
</defs>
</svg>
