<svg width="403" height="432" viewBox="0 0 403 432" fill="none" xmlns="http://www.w3.org/2000/svg">
<rect width="402.667" height="432" rx="24" fill="white"/>
<path d="M27.92 42V37.28L24 30.48H26.248L28.896 35.072L31.536 30.48H33.784L29.872 37.28V42H27.92ZM37.436 42.24C36.572 42.24 35.8173 42.0453 35.172 41.656C34.5267 41.2667 34.0253 40.7307 33.668 40.048C33.316 39.36 33.14 38.5707 33.14 37.68C33.14 36.7733 33.3213 35.9787 33.684 35.296C34.0467 34.6133 34.5507 34.08 35.196 33.696C35.8413 33.312 36.588 33.12 37.436 33.12C38.3053 33.12 39.0627 33.3147 39.708 33.704C40.3533 34.0933 40.8547 34.632 41.212 35.32C41.5693 36.0027 41.748 36.7893 41.748 37.68C41.748 38.576 41.5667 39.368 41.204 40.056C40.8467 40.7387 40.3453 41.2747 39.7 41.664C39.0547 42.048 38.3 42.24 37.436 42.24ZM37.436 40.432C38.204 40.432 38.7747 40.176 39.148 39.664C39.5213 39.152 39.708 38.4907 39.708 37.68C39.708 36.8427 39.5187 36.176 39.14 35.68C38.7613 35.1787 38.1933 34.928 37.436 34.928C36.9187 34.928 36.492 35.0453 36.156 35.28C35.8253 35.5093 35.58 35.832 35.42 36.248C35.26 36.6587 35.18 37.136 35.18 37.68C35.18 38.5173 35.3693 39.1867 35.748 39.688C36.132 40.184 36.6947 40.432 37.436 40.432ZM46.7506 42.248C46.1106 42.248 45.5826 42.1413 45.1666 41.928C44.7506 41.7147 44.42 41.4427 44.1746 41.112C43.9293 40.7813 43.748 40.4293 43.6306 40.056C43.5133 39.6827 43.436 39.3307 43.3986 39C43.3666 38.664 43.3506 38.392 43.3506 38.184V33.36H45.3026V37.52C45.3026 37.7867 45.3213 38.088 45.3586 38.424C45.396 38.7547 45.4813 39.0747 45.6146 39.384C45.7533 39.688 45.956 39.9387 46.2226 40.136C46.4946 40.3333 46.86 40.432 47.3186 40.432C47.564 40.432 47.8066 40.392 48.0466 40.312C48.2866 40.232 48.5026 40.096 48.6946 39.904C48.892 39.7067 49.0493 39.4373 49.1666 39.096C49.284 38.7547 49.3426 38.3227 49.3426 37.8L50.4866 38.288C50.4866 39.024 50.3426 39.6907 50.0546 40.288C49.772 40.8853 49.3533 41.3627 48.7986 41.72C48.244 42.072 47.5613 42.248 46.7506 42.248ZM49.5746 42V39.32H49.3426V33.36H51.2786V42H49.5746ZM53.5263 42V33.36H55.2303V35.464L55.0223 35.192C55.1289 34.904 55.2703 34.6427 55.4463 34.408C55.6276 34.168 55.8436 33.9707 56.0943 33.816C56.3076 33.672 56.5423 33.56 56.7983 33.48C57.0596 33.3947 57.3263 33.344 57.5983 33.328C57.8703 33.3067 58.1343 33.3173 58.3903 33.36V35.16C58.1343 35.0853 57.8383 35.0613 57.5023 35.088C57.1716 35.1147 56.8729 35.208 56.6063 35.368C56.3396 35.512 56.1209 35.696 55.9503 35.92C55.7849 36.144 55.6623 36.4 55.5823 36.688C55.5023 36.9707 55.4623 37.2773 55.4623 37.608V42H53.5263ZM65.712 42L62.08 30.48H64.064L67.104 40.128L70.184 30.48H72.168L68.536 42H65.712ZM76.2329 42.24C75.3689 42.24 74.6142 42.0453 73.9689 41.656C73.3235 41.2667 72.8222 40.7307 72.4649 40.048C72.1129 39.36 71.9369 38.5707 71.9369 37.68C71.9369 36.7733 72.1182 35.9787 72.4809 35.296C72.8435 34.6133 73.3475 34.08 73.9929 33.696C74.6382 33.312 75.3849 33.12 76.2329 33.12C77.1022 33.12 77.8595 33.3147 78.5049 33.704C79.1502 34.0933 79.6515 34.632 80.0089 35.32C80.3662 36.0027 80.5449 36.7893 80.5449 37.68C80.5449 38.576 80.3635 39.368 80.0009 40.056C79.6435 40.7387 79.1422 41.2747 78.4969 41.664C77.8515 42.048 77.0969 42.24 76.2329 42.24ZM76.2329 40.432C77.0009 40.432 77.5715 40.176 77.9449 39.664C78.3182 39.152 78.5049 38.4907 78.5049 37.68C78.5049 36.8427 78.3155 36.176 77.9369 35.68C77.5582 35.1787 76.9902 34.928 76.2329 34.928C75.7155 34.928 75.2889 35.0453 74.9529 35.28C74.6222 35.5093 74.3769 35.832 74.2169 36.248C74.0569 36.6587 73.9769 37.136 73.9769 37.68C73.9769 38.5173 74.1662 39.1867 74.5449 39.688C74.9289 40.184 75.4915 40.432 76.2329 40.432ZM82.4675 42V30.24H84.3955V42H82.4675ZM90.0319 42.248C89.3919 42.248 88.8639 42.1413 88.4479 41.928C88.0319 41.7147 87.7012 41.4427 87.4559 41.112C87.2105 40.7813 87.0292 40.4293 86.9119 40.056C86.7945 39.6827 86.7172 39.3307 86.6799 39C86.6479 38.664 86.6319 38.392 86.6319 38.184V33.36H88.5839V37.52C88.5839 37.7867 88.6025 38.088 88.6399 38.424C88.6772 38.7547 88.7625 39.0747 88.8959 39.384C89.0345 39.688 89.2372 39.9387 89.5039 40.136C89.7759 40.3333 90.1412 40.432 90.5999 40.432C90.8452 40.432 91.0879 40.392 91.3279 40.312C91.5679 40.232 91.7839 40.096 91.9759 39.904C92.1732 39.7067 92.3305 39.4373 92.4479 39.096C92.5652 38.7547 92.6239 38.3227 92.6239 37.8L93.7679 38.288C93.7679 39.024 93.6239 39.6907 93.3359 40.288C93.0532 40.8853 92.6345 41.3627 92.0799 41.72C91.5252 42.072 90.8425 42.248 90.0319 42.248ZM92.8559 42V39.32H92.6239V33.36H94.5599V42H92.8559ZM102.784 42V37.84C102.784 37.568 102.765 37.2667 102.728 36.936C102.69 36.6053 102.602 36.288 102.464 35.984C102.33 35.6747 102.128 35.4213 101.856 35.224C101.589 35.0267 101.226 34.928 100.768 34.928C100.522 34.928 100.28 34.968 100.04 35.048C99.7995 35.128 99.5808 35.2667 99.3835 35.464C99.1915 35.656 99.0368 35.9227 98.9195 36.264C98.8022 36.6 98.7435 37.032 98.7435 37.56L97.5995 37.072C97.5995 36.336 97.7408 35.6693 98.0235 35.072C98.3115 34.4747 98.7328 34 99.2875 33.648C99.8422 33.2907 100.525 33.112 101.336 33.112C101.976 33.112 102.504 33.2187 102.92 33.432C103.336 33.6453 103.666 33.9173 103.911 34.248C104.157 34.5787 104.338 34.9307 104.456 35.304C104.573 35.6773 104.648 36.032 104.68 36.368C104.717 36.6987 104.736 36.968 104.736 37.176V42H102.784ZM96.7915 42V33.36H98.5115V36.04H98.7435V42H96.7915ZM111.887 42C111.316 42.1067 110.756 42.152 110.207 42.136C109.663 42.1253 109.175 42.0267 108.743 41.84C108.311 41.648 107.983 41.3467 107.759 40.936C107.562 40.5627 107.458 40.1813 107.447 39.792C107.436 39.4027 107.431 38.9627 107.431 38.472V30.96H109.351V38.36C109.351 38.7067 109.354 39.0107 109.359 39.272C109.37 39.5333 109.426 39.7467 109.527 39.912C109.719 40.232 110.026 40.4107 110.447 40.448C110.868 40.4853 111.348 40.464 111.887 40.384V42ZM105.863 34.872V33.36H111.887V34.872H105.863ZM117.236 42.24C116.361 42.24 115.593 42.0507 114.932 41.672C114.27 41.2933 113.753 40.768 113.38 40.096C113.012 39.424 112.828 38.6507 112.828 37.776C112.828 36.832 113.009 36.0133 113.372 35.32C113.734 34.6213 114.238 34.08 114.884 33.696C115.529 33.312 116.276 33.12 117.124 33.12C118.02 33.12 118.78 33.3307 119.404 33.752C120.033 34.168 120.5 34.7573 120.804 35.52C121.108 36.2827 121.222 37.1813 121.148 38.216H119.236V37.512C119.23 36.5733 119.065 35.888 118.74 35.456C118.414 35.024 117.902 34.808 117.204 34.808C116.414 34.808 115.828 35.0533 115.444 35.544C115.06 36.0293 114.868 36.7413 114.868 37.68C114.868 38.5547 115.06 39.232 115.444 39.712C115.828 40.192 116.388 40.432 117.124 40.432C117.598 40.432 118.006 40.328 118.348 40.12C118.694 39.9067 118.961 39.6 119.148 39.2L121.052 39.776C120.721 40.5547 120.209 41.16 119.516 41.592C118.828 42.024 118.068 42.24 117.236 42.24ZM114.26 38.216V36.76H120.204V38.216H114.26ZM126.861 42.24C125.986 42.24 125.218 42.0507 124.557 41.672C123.895 41.2933 123.378 40.768 123.005 40.096C122.637 39.424 122.453 38.6507 122.453 37.776C122.453 36.832 122.634 36.0133 122.997 35.32C123.359 34.6213 123.863 34.08 124.509 33.696C125.154 33.312 125.901 33.12 126.749 33.12C127.645 33.12 128.405 33.3307 129.029 33.752C129.658 34.168 130.125 34.7573 130.429 35.52C130.733 36.2827 130.847 37.1813 130.773 38.216H128.861V37.512C128.855 36.5733 128.69 35.888 128.365 35.456C128.039 35.024 127.527 34.808 126.829 34.808C126.039 34.808 125.453 35.0533 125.069 35.544C124.685 36.0293 124.493 36.7413 124.493 37.68C124.493 38.5547 124.685 39.232 125.069 39.712C125.453 40.192 126.013 40.432 126.749 40.432C127.223 40.432 127.631 40.328 127.973 40.12C128.319 39.9067 128.586 39.6 128.773 39.2L130.677 39.776C130.346 40.5547 129.834 41.16 129.141 41.592C128.453 42.024 127.693 42.24 126.861 42.24ZM123.885 38.216V36.76H129.829V38.216H123.885ZM132.558 42V33.36H134.262V35.464L134.054 35.192C134.16 34.904 134.302 34.6427 134.478 34.408C134.659 34.168 134.875 33.9707 135.126 33.816C135.339 33.672 135.574 33.56 135.83 33.48C136.091 33.3947 136.358 33.344 136.63 33.328C136.902 33.3067 137.166 33.3173 137.422 33.36V35.16C137.166 35.0853 136.87 35.0613 136.534 35.088C136.203 35.1147 135.904 35.208 135.638 35.368C135.371 35.512 135.152 35.696 134.982 35.92C134.816 36.144 134.694 36.4 134.614 36.688C134.534 36.9707 134.494 37.2773 134.494 37.608V42H132.558ZM141.351 42L144.983 30.48H147.807L151.439 42H149.455L146.159 31.664H146.591L143.335 42H141.351ZM143.375 39.504V37.704H149.423V39.504H143.375ZM157.038 42.24C156.195 42.24 155.488 42.04 154.918 41.64C154.347 41.24 153.918 40.696 153.63 40.008C153.342 39.3147 153.198 38.5387 153.198 37.68C153.198 36.8107 153.342 36.032 153.63 35.344C153.918 34.656 154.339 34.1147 154.894 33.72C155.454 33.32 156.144 33.12 156.966 33.12C157.782 33.12 158.488 33.32 159.086 33.72C159.688 34.1147 160.155 34.656 160.486 35.344C160.816 36.0267 160.982 36.8053 160.982 37.68C160.982 38.544 160.819 39.32 160.494 40.008C160.168 40.696 159.71 41.24 159.118 41.64C158.526 42.04 157.832 42.24 157.038 42.24ZM152.87 45.84V33.36H154.574V39.424H154.814V45.84H152.87ZM156.742 40.512C157.243 40.512 157.656 40.3867 157.982 40.136C158.307 39.8853 158.547 39.5467 158.702 39.12C158.862 38.688 158.942 38.208 158.942 37.68C158.942 37.1573 158.862 36.6827 158.702 36.256C158.542 35.824 158.294 35.4827 157.958 35.232C157.622 34.976 157.195 34.848 156.678 34.848C156.187 34.848 155.787 34.968 155.478 35.208C155.168 35.4427 154.939 35.7733 154.79 36.2C154.646 36.6213 154.574 37.1147 154.574 37.68C154.574 38.24 154.646 38.7333 154.79 39.16C154.939 39.5867 155.171 39.92 155.486 40.16C155.806 40.3947 156.224 40.512 156.742 40.512ZM166.897 42.24C166.054 42.24 165.348 42.04 164.777 41.64C164.206 41.24 163.777 40.696 163.489 40.008C163.201 39.3147 163.057 38.5387 163.057 37.68C163.057 36.8107 163.201 36.032 163.489 35.344C163.777 34.656 164.198 34.1147 164.753 33.72C165.313 33.32 166.004 33.12 166.825 33.12C167.641 33.12 168.348 33.32 168.945 33.72C169.548 34.1147 170.014 34.656 170.345 35.344C170.676 36.0267 170.841 36.8053 170.841 37.68C170.841 38.544 170.678 39.32 170.353 40.008C170.028 40.696 169.569 41.24 168.977 41.64C168.385 42.04 167.692 42.24 166.897 42.24ZM162.729 45.84V33.36H164.433V39.424H164.673V45.84H162.729ZM166.601 40.512C167.102 40.512 167.516 40.3867 167.841 40.136C168.166 39.8853 168.406 39.5467 168.561 39.12C168.721 38.688 168.801 38.208 168.801 37.68C168.801 37.1573 168.721 36.6827 168.561 36.256C168.401 35.824 168.153 35.4827 167.817 35.232C167.481 34.976 167.054 34.848 166.537 34.848C166.046 34.848 165.646 34.968 165.337 35.208C165.028 35.4427 164.798 35.7733 164.649 36.2C164.505 36.6213 164.433 37.1147 164.433 37.68C164.433 38.24 164.505 38.7333 164.649 39.16C164.798 39.5867 165.03 39.92 165.345 40.16C165.665 40.3947 166.084 40.512 166.601 40.512ZM172.764 42V30.24H174.692V42H172.764ZM177.249 32.048V30.28H179.177V32.048H177.249ZM177.249 42V33.36H179.177V42H177.249ZM185.325 42.24C184.434 42.24 183.674 42.0427 183.045 41.648C182.416 41.248 181.933 40.704 181.597 40.016C181.266 39.328 181.098 38.5493 181.093 37.68C181.098 36.7947 181.272 36.0107 181.613 35.328C181.96 34.64 182.45 34.1013 183.085 33.712C183.72 33.3173 184.474 33.12 185.349 33.12C186.33 33.12 187.16 33.368 187.837 33.864C188.52 34.3547 188.965 35.0267 189.173 35.88L187.253 36.4C187.104 35.936 186.856 35.576 186.509 35.32C186.162 35.0587 185.768 34.928 185.325 34.928C184.824 34.928 184.41 35.048 184.085 35.288C183.76 35.5227 183.52 35.848 183.365 36.264C183.21 36.68 183.133 37.152 183.133 37.68C183.133 38.5013 183.317 39.1653 183.685 39.672C184.053 40.1787 184.6 40.432 185.325 40.432C185.837 40.432 186.24 40.3147 186.533 40.08C186.832 39.8453 187.056 39.5067 187.205 39.064L189.173 39.504C188.906 40.384 188.44 41.0613 187.773 41.536C187.106 42.0053 186.29 42.24 185.325 42.24ZM193.052 42.24C192.428 42.24 191.9 42.1227 191.468 41.888C191.036 41.648 190.708 41.3307 190.484 40.936C190.265 40.5413 190.156 40.1067 190.156 39.632C190.156 39.216 190.225 38.8427 190.364 38.512C190.502 38.176 190.716 37.888 191.004 37.648C191.292 37.4027 191.665 37.2027 192.124 37.048C192.47 36.936 192.876 36.8347 193.34 36.744C193.809 36.6533 194.316 36.5707 194.86 36.496C195.409 36.416 195.982 36.3307 196.58 36.24L195.892 36.632C195.897 36.0347 195.764 35.5947 195.492 35.312C195.22 35.0293 194.761 34.888 194.116 34.888C193.726 34.888 193.35 34.9787 192.988 35.16C192.625 35.3413 192.372 35.6533 192.228 36.096L190.468 35.544C190.681 34.8133 191.086 34.2267 191.684 33.784C192.286 33.3413 193.097 33.12 194.116 33.12C194.884 33.12 195.558 33.2453 196.14 33.496C196.726 33.7467 197.161 34.1573 197.444 34.728C197.598 35.032 197.692 35.344 197.724 35.664C197.756 35.9787 197.772 36.3227 197.772 36.696V42H196.084V40.128L196.364 40.432C195.974 41.056 195.518 41.5147 194.996 41.808C194.478 42.096 193.83 42.24 193.052 42.24ZM193.436 40.704C193.873 40.704 194.246 40.6267 194.556 40.472C194.865 40.3173 195.11 40.128 195.292 39.904C195.478 39.68 195.604 39.4693 195.668 39.272C195.769 39.0267 195.825 38.7467 195.836 38.432C195.852 38.112 195.86 37.8533 195.86 37.656L196.452 37.832C195.87 37.9227 195.372 38.0027 194.956 38.072C194.54 38.1413 194.182 38.208 193.884 38.272C193.585 38.3307 193.321 38.3973 193.092 38.472C192.868 38.552 192.678 38.6453 192.524 38.752C192.369 38.8587 192.249 38.9813 192.164 39.12C192.084 39.2587 192.044 39.4213 192.044 39.608C192.044 39.8213 192.097 40.0107 192.204 40.176C192.31 40.336 192.465 40.464 192.668 40.56C192.876 40.656 193.132 40.704 193.436 40.704ZM204.918 42C204.348 42.1067 203.788 42.152 203.238 42.136C202.694 42.1253 202.206 42.0267 201.774 41.84C201.342 41.648 201.014 41.3467 200.79 40.936C200.593 40.5627 200.489 40.1813 200.478 39.792C200.468 39.4027 200.462 38.9627 200.462 38.472V30.96H202.382V38.36C202.382 38.7067 202.385 39.0107 202.39 39.272C202.401 39.5333 202.457 39.7467 202.558 39.912C202.75 40.232 203.057 40.4107 203.478 40.448C203.9 40.4853 204.38 40.464 204.918 40.384V42ZM198.894 34.872V33.36H204.918V34.872H198.894ZM206.936 32.048V30.28H208.864V32.048H206.936ZM206.936 42V33.36H208.864V42H206.936ZM215.077 42.24C214.213 42.24 213.458 42.0453 212.813 41.656C212.167 41.2667 211.666 40.7307 211.309 40.048C210.957 39.36 210.781 38.5707 210.781 37.68C210.781 36.7733 210.962 35.9787 211.325 35.296C211.687 34.6133 212.191 34.08 212.837 33.696C213.482 33.312 214.229 33.12 215.077 33.12C215.946 33.12 216.703 33.3147 217.349 33.704C217.994 34.0933 218.495 34.632 218.853 35.32C219.21 36.0027 219.389 36.7893 219.389 37.68C219.389 38.576 219.207 39.368 218.845 40.056C218.487 40.7387 217.986 41.2747 217.341 41.664C216.695 42.048 215.941 42.24 215.077 42.24ZM215.077 40.432C215.845 40.432 216.415 40.176 216.789 39.664C217.162 39.152 217.349 38.4907 217.349 37.68C217.349 36.8427 217.159 36.176 216.781 35.68C216.402 35.1787 215.834 34.928 215.077 34.928C214.559 34.928 214.133 35.0453 213.797 35.28C213.466 35.5093 213.221 35.832 213.061 36.248C212.901 36.6587 212.821 37.136 212.821 37.68C212.821 38.5173 213.01 39.1867 213.389 39.688C213.773 40.184 214.335 40.432 215.077 40.432ZM227.127 42V37.84C227.127 37.568 227.109 37.2667 227.071 36.936C227.034 36.6053 226.946 36.288 226.807 35.984C226.674 35.6747 226.471 35.4213 226.199 35.224C225.933 35.0267 225.57 34.928 225.111 34.928C224.866 34.928 224.623 34.968 224.383 35.048C224.143 35.128 223.925 35.2667 223.727 35.464C223.535 35.656 223.381 35.9227 223.263 36.264C223.146 36.6 223.087 37.032 223.087 37.56L221.943 37.072C221.943 36.336 222.085 35.6693 222.367 35.072C222.655 34.4747 223.077 34 223.631 33.648C224.186 33.2907 224.869 33.112 225.679 33.112C226.319 33.112 226.847 33.2187 227.263 33.432C227.679 33.6453 228.01 33.9173 228.255 34.248C228.501 34.5787 228.682 34.9307 228.799 35.304C228.917 35.6773 228.991 36.032 229.023 36.368C229.061 36.6987 229.079 36.968 229.079 37.176V42H227.127ZM221.135 42V33.36H222.855V36.04H223.087V42H221.135ZM234.503 42.24C233.436 42.24 232.57 42 231.903 41.52C231.236 41.04 230.831 40.3653 230.687 39.496L232.655 39.192C232.756 39.6187 232.98 39.9547 233.327 40.2C233.674 40.4453 234.111 40.568 234.639 40.568C235.103 40.568 235.46 40.4773 235.711 40.296C235.967 40.1093 236.095 39.856 236.095 39.536C236.095 39.3387 236.047 39.1813 235.951 39.064C235.86 38.9413 235.658 38.824 235.343 38.712C235.028 38.6 234.546 38.4587 233.895 38.288C233.17 38.096 232.594 37.8907 232.167 37.672C231.74 37.448 231.434 37.184 231.247 36.88C231.06 36.576 230.967 36.208 230.967 35.776C230.967 35.2373 231.108 34.768 231.391 34.368C231.674 33.968 232.068 33.6613 232.575 33.448C233.082 33.2293 233.679 33.12 234.367 33.12C235.039 33.12 235.634 33.224 236.151 33.432C236.674 33.64 237.095 33.936 237.415 34.32C237.735 34.704 237.932 35.1547 238.007 35.672L236.039 36.024C235.991 35.656 235.823 35.3653 235.535 35.152C235.252 34.9387 234.874 34.8187 234.399 34.792C233.946 34.7653 233.58 34.8347 233.303 35C233.026 35.16 232.887 35.3867 232.887 35.68C232.887 35.8453 232.943 35.9867 233.055 36.104C233.167 36.2213 233.391 36.3387 233.727 36.456C234.068 36.5733 234.575 36.7173 235.247 36.888C235.935 37.064 236.484 37.2667 236.895 37.496C237.311 37.72 237.61 37.9893 237.791 38.304C237.978 38.6187 238.071 39 238.071 39.448C238.071 40.3173 237.754 41 237.119 41.496C236.49 41.992 235.618 42.24 234.503 42.24Z" fill="#212633"/>
<path d="M201.164 80.1414C215.266 80.1232 229.213 83.0879 242.088 88.841C254.964 94.5941 266.477 103.005 275.872 113.523C285.266 124.04 292.33 136.425 296.6 149.866C300.869 163.306 302.248 177.498 300.645 191.509L276.869 188.788C278.088 178.131 277.039 167.335 273.792 157.111C270.544 146.887 265.17 137.466 258.024 129.465C250.877 121.465 242.12 115.067 232.325 110.69C222.531 106.314 211.922 104.059 201.195 104.073L201.164 80.1414Z" fill="white"/>
<path d="M199.695 104.075L199.697 105.575L201.197 105.573C211.713 105.559 222.112 107.77 231.714 112.06C241.315 116.35 249.9 122.622 256.905 130.465C263.911 138.307 269.178 147.543 272.362 157.565C275.546 167.588 276.574 178.17 275.378 188.618L275.208 190.108L276.698 190.279L300.474 192.999L301.965 193.17L302.135 191.679C302.912 184.886 302.999 178.051 302.405 171.278C301.756 163.871 300.293 156.537 298.03 149.412C293.696 135.77 286.526 123.198 276.99 112.523C267.455 101.848 255.769 93.3109 242.7 87.4715C235.874 84.4215 228.752 82.1435 221.465 80.6659C214.801 79.3146 207.999 78.6326 201.162 78.6414L199.662 78.6433L199.664 80.1433L199.695 104.075Z" fill="#F93535" stroke="#F3F6FF" stroke-width="3"/>
<path d="M300.649 191.477C298.996 205.963 294.196 219.912 286.585 232.347C278.973 244.782 268.735 255.402 256.587 263.464C244.439 271.525 230.675 276.833 216.26 279.015C201.845 281.197 187.127 280.201 173.137 276.096L179.875 253.132C190.517 256.255 201.713 257.013 212.678 255.353C223.644 253.693 234.114 249.656 243.355 243.523C252.595 237.391 260.384 229.312 266.173 219.853C271.963 210.394 275.615 199.783 276.872 188.764L300.649 191.477Z" fill="white"/>
<path d="M172.715 277.535L172.716 277.535L172.716 277.535L172.716 277.535L172.716 277.535L172.716 277.535L172.716 277.535L172.716 277.535L172.716 277.535L172.716 277.535L172.716 277.535L172.716 277.535L172.716 277.535L172.716 277.535L172.716 277.535L172.716 277.535L172.716 277.535L172.716 277.535L172.716 277.535L172.716 277.535L172.716 277.535L172.716 277.535L172.716 277.535L172.716 277.535L172.716 277.535L172.716 277.535L172.716 277.535L172.716 277.535L172.716 277.535L172.716 277.535L172.716 277.535L172.716 277.535L172.716 277.535L172.716 277.535L172.716 277.535L172.716 277.535L172.716 277.535L172.716 277.535L172.716 277.535L172.716 277.535L172.716 277.535L172.716 277.535L172.716 277.535L172.716 277.535L172.716 277.535L172.716 277.535L172.716 277.535L172.716 277.535L172.716 277.535L172.716 277.535L172.716 277.535L172.716 277.535L172.716 277.535L172.716 277.535L172.716 277.535L172.716 277.535L172.716 277.535L172.716 277.535L172.716 277.535L172.716 277.535L172.716 277.535L172.716 277.535L172.716 277.535L172.716 277.535L172.716 277.535L172.716 277.535L172.717 277.535L172.717 277.535L172.717 277.535L172.717 277.535L172.717 277.535L172.717 277.535L172.717 277.535L172.717 277.535L172.717 277.535L172.717 277.535L172.717 277.535L172.717 277.535L172.717 277.535L172.717 277.535L172.717 277.535L172.717 277.535L172.717 277.535L172.717 277.535L172.717 277.535L172.717 277.535L172.717 277.535L172.717 277.535L172.717 277.535L172.717 277.535L172.717 277.535L172.717 277.535L172.717 277.535L172.717 277.535L172.717 277.535L172.717 277.536L172.717 277.536L172.717 277.536L172.717 277.536L172.717 277.536L172.717 277.536L172.717 277.536L172.717 277.536L172.717 277.536L172.717 277.536L172.717 277.536L172.717 277.536L172.717 277.536L172.717 277.536L172.717 277.536L172.717 277.536L172.717 277.536L172.717 277.536L172.717 277.536L172.717 277.536L172.717 277.536L172.717 277.536L172.717 277.536L172.717 277.536L172.717 277.536L172.717 277.536L172.717 277.536L172.717 277.536L172.717 277.536L172.717 277.536L172.717 277.536L172.717 277.536L172.717 277.536L172.717 277.536L172.717 277.536L172.717 277.536L172.717 277.536L172.718 277.536L172.718 277.536L172.718 277.536L172.718 277.536L172.718 277.536L172.718 277.536L172.718 277.536L172.718 277.536L172.718 277.536L172.718 277.536L172.718 277.536L172.718 277.536L172.718 277.536L172.718 277.536L172.718 277.536L172.718 277.536L172.718 277.536L172.718 277.536L172.718 277.536L172.718 277.536L172.718 277.536L172.718 277.536L172.718 277.536L172.718 277.536L172.718 277.536L172.718 277.536L172.718 277.536L172.718 277.536L172.718 277.536L172.718 277.536L172.718 277.536L172.718 277.536L172.718 277.536L172.718 277.536L172.718 277.536L172.718 277.536L172.718 277.536L172.718 277.536L172.718 277.536L172.718 277.536L172.718 277.536L172.718 277.536L172.718 277.536L172.718 277.536L172.718 277.536L172.718 277.536L172.718 277.536L172.718 277.536L172.718 277.536L172.718 277.536L172.718 277.536L172.718 277.536L172.718 277.536L172.718 277.536L172.718 277.536L172.718 277.536L172.718 277.536L172.718 277.536L172.718 277.536L172.718 277.536L172.718 277.536L172.718 277.536L172.718 277.536L172.718 277.536L172.718 277.536L172.718 277.536L172.719 277.536L172.719 277.536L172.719 277.536L172.719 277.536L172.719 277.536L172.719 277.536L172.719 277.536L172.719 277.536L172.719 277.536L172.719 277.536L172.719 277.536L172.719 277.536L172.719 277.536L172.719 277.536L172.719 277.536L172.719 277.536L172.719 277.536L172.719 277.536L172.719 277.536L172.719 277.536L172.719 277.536L172.719 277.536L172.719 277.536L172.719 277.536L172.719 277.536L172.719 277.536L172.719 277.536L172.719 277.536L172.719 277.536L172.719 277.536L172.719 277.536L172.719 277.536L172.719 277.536L172.719 277.536L172.719 277.536L172.719 277.536L172.719 277.536L172.719 277.536L172.719 277.536L172.719 277.536L172.719 277.536L172.719 277.536L172.719 277.536L172.719 277.536L172.719 277.536L172.719 277.536L172.719 277.536L172.719 277.536L172.719 277.536L172.719 277.536L172.719 277.536L172.719 277.536L172.719 277.536L172.719 277.536L172.719 277.536L172.719 277.536L172.719 277.536L172.719 277.536L172.719 277.536L172.719 277.536L172.719 277.536L172.719 277.536L172.719 277.536L172.719 277.536L172.719 277.536L172.719 277.536L172.72 277.536L172.72 277.536L172.72 277.536L172.72 277.536L172.72 277.536L172.72 277.536L172.72 277.536L172.72 277.536L172.72 277.536L172.72 277.536L172.72 277.536L172.72 277.536L172.72 277.536L172.72 277.536L172.72 277.536L172.72 277.536L172.72 277.536L172.72 277.536L172.72 277.536L172.72 277.536L172.72 277.536L172.72 277.536L172.72 277.536L172.72 277.536L172.72 277.536L172.72 277.536L172.72 277.536L172.72 277.536L172.72 277.536L172.72 277.536L172.72 277.536L172.72 277.536L172.72 277.536L172.72 277.536L172.72 277.536L172.72 277.536L172.72 277.536L172.72 277.536L172.72 277.536L172.72 277.536L172.72 277.536L172.72 277.536L172.72 277.536L172.72 277.536L172.72 277.536L172.72 277.536L172.72 277.536L172.72 277.536L172.72 277.536L172.72 277.536L172.72 277.536L172.72 277.536L172.72 277.536L172.72 277.536L172.72 277.536L172.72 277.536L172.72 277.537L172.72 277.537L172.72 277.537L172.72 277.537L172.72 277.537L172.72 277.537L172.72 277.537L172.72 277.537L172.72 277.537L172.72 277.537L172.72 277.537L172.721 277.537L172.721 277.537L172.721 277.537L172.721 277.537L172.721 277.537L172.721 277.537L172.721 277.537L172.721 277.537L172.721 277.537L172.721 277.537L172.721 277.537L172.721 277.537L172.721 277.537L172.721 277.537L172.721 277.537L172.721 277.537L172.721 277.537L172.721 277.537L172.721 277.537L172.721 277.537L172.721 277.537L172.721 277.537L172.721 277.537L172.721 277.537L172.721 277.537L172.721 277.537L172.721 277.537L172.721 277.537L172.721 277.537L172.721 277.537L172.721 277.537L172.721 277.537L172.721 277.537L172.721 277.537L172.721 277.537L172.721 277.537L172.721 277.537L172.721 277.537L172.721 277.537L172.721 277.537L172.721 277.537L172.721 277.537L172.721 277.537L172.721 277.537L172.721 277.537L172.721 277.537L172.721 277.537L172.721 277.537L172.721 277.537L172.721 277.537L172.721 277.537L172.721 277.537L172.721 277.537L172.721 277.537L172.721 277.537L172.721 277.537L172.721 277.537L172.721 277.537L172.721 277.537L172.721 277.537L172.721 277.537L172.721 277.537L172.721 277.537L172.721 277.537L172.721 277.537L172.721 277.537L172.722 277.537L172.722 277.537L172.722 277.537L172.722 277.537L172.722 277.537L172.722 277.537L172.722 277.537L172.722 277.537L172.722 277.537L172.722 277.537L172.722 277.537L172.722 277.537L172.722 277.537L172.722 277.537L172.722 277.537L172.722 277.537L172.722 277.537L172.722 277.537L172.722 277.537L172.722 277.537L172.722 277.537L172.722 277.537L172.722 277.537L172.722 277.537L172.722 277.537L172.722 277.537L172.722 277.537L172.722 277.537L172.722 277.537L172.722 277.537L172.722 277.537L172.722 277.537L172.722 277.537L172.722 277.537L172.722 277.537L172.722 277.537L172.722 277.537L172.722 277.537L172.722 277.537L172.722 277.537L172.722 277.537L172.722 277.537L172.722 277.537L172.722 277.537L172.722 277.537L172.722 277.537L172.722 277.537L172.722 277.537L172.722 277.537L172.722 277.537L172.722 277.537L172.722 277.537L172.722 277.537L172.722 277.537L172.722 277.537L172.722 277.537L172.722 277.537L172.722 277.537L172.722 277.537L172.722 277.537L172.722 277.537L172.722 277.537L172.722 277.537C172.723 277.537 172.723 277.537 172.723 277.537C172.723 277.537 172.723 277.537 172.723 277.537C172.723 277.537 172.723 277.537 172.723 277.537C172.723 277.537 172.723 277.537 172.723 277.537C179.282 279.461 185.999 280.712 192.771 281.283C200.656 281.947 208.615 281.689 216.484 280.498C231.116 278.283 245.086 272.896 257.417 264.714C269.747 256.531 280.139 245.751 287.864 233.13C292.02 226.341 295.349 219.108 297.801 211.584C299.907 205.12 301.364 198.442 302.139 191.647L302.309 190.157L300.819 189.987L277.042 187.274L275.552 187.104L275.382 188.594C274.149 199.396 270.57 209.798 264.894 219.07C259.218 228.343 251.584 236.262 242.525 242.274C233.467 248.285 223.203 252.243 212.454 253.87C201.705 255.497 190.729 254.754 180.298 251.693L178.858 251.271L178.436 252.71L171.698 275.673L171.275 277.113L172.715 277.535ZM172.715 277.535V277.535Z" fill="#356CF9" stroke="#F3F6FF" stroke-width="3"/>
<path d="M173.095 276.083C148.669 268.905 127.901 252.68 115.025 230.717C102.149 208.754 98.1343 182.706 103.8 157.886L127.132 163.212C122.822 182.093 125.875 201.906 135.67 218.613C145.464 235.32 161.262 247.662 179.843 253.123L173.095 276.083Z" fill="white"/>
<path d="M181.282 253.546L181.705 252.107L180.266 251.684C162.052 246.331 146.565 234.232 136.964 217.855C127.362 201.477 124.369 182.054 128.594 163.546L128.928 162.083L127.465 161.749L104.134 156.423L102.671 156.089L102.338 157.553L102.334 157.571L102.329 157.59C102.329 157.59 102.329 157.59 102.329 157.59C100.807 164.273 99.975 171.042 99.8191 177.799C99.3877 196.503 104.134 215.107 113.731 231.475C123.327 247.844 137.242 261.072 153.774 269.831C159.757 273.002 166.084 275.586 172.672 277.523L174.111 277.946L174.534 276.506L181.282 253.546Z" fill="#F9AB35" stroke="#F3F6FF" stroke-width="3"/>
<path d="M103.741 158.141C108.732 136.013 121.097 116.24 138.807 102.066C156.518 87.8923 178.521 80.161 201.205 80.1414L201.225 104.073C183.97 104.088 167.233 109.969 153.761 120.75C140.289 131.532 130.883 146.574 127.086 163.406L103.741 158.141Z" fill="white"/>
<path d="M126.756 164.87L128.22 165.2L128.55 163.736C132.271 147.236 141.492 132.491 154.698 121.922C167.904 111.353 184.312 105.587 201.227 105.573L202.727 105.571L202.725 104.071L202.705 80.14L202.703 78.6401L201.203 78.6413C194.344 78.6473 187.545 79.348 180.905 80.7095C165.258 83.9177 150.491 90.7947 137.87 100.895C125.25 110.995 115.304 123.897 108.744 138.46C105.961 144.64 103.787 151.12 102.278 157.811L101.948 159.275L103.411 159.605L126.756 164.87Z" fill="#34C759" stroke="#F3F6FF" stroke-width="3"/>
<path d="M184.385 185V150.196L176.797 154.788V149.216L184.385 144.68H189.453V185H184.385ZM198.987 184.972L199.015 180.492L216.907 164.392C218.4 163.048 219.399 161.779 219.903 160.584C220.425 159.371 220.687 158.129 220.687 156.86C220.687 155.311 220.332 153.911 219.623 152.66C218.913 151.409 217.943 150.42 216.711 149.692C215.497 148.964 214.116 148.6 212.567 148.6C210.961 148.6 209.533 148.983 208.283 149.748C207.032 150.495 206.043 151.493 205.315 152.744C204.605 153.995 204.26 155.357 204.279 156.832H199.183C199.183 154.293 199.771 152.053 200.947 150.112C202.123 148.152 203.719 146.621 205.735 145.52C207.769 144.4 210.075 143.84 212.651 143.84C215.152 143.84 217.392 144.419 219.371 145.576C221.349 146.715 222.908 148.273 224.047 150.252C225.204 152.212 225.783 154.433 225.783 156.916C225.783 158.671 225.559 160.192 225.111 161.48C224.681 162.768 224.009 163.963 223.095 165.064C222.18 166.147 221.032 167.304 219.651 168.536L204.783 181.892L204.139 180.212H225.783V184.972H198.987Z" fill="#212633"/>
<path d="M152.589 221L156.805 208.76H158.462L162.678 221H161.378L157.374 209.457H157.867L153.889 221H152.589ZM154.467 218.033V216.86H160.791V218.033H154.467ZM168.336 221.255C167.491 221.255 166.777 221.043 166.194 220.617C165.61 220.187 165.168 219.606 164.868 218.875C164.567 218.138 164.417 217.314 164.417 216.401C164.417 215.472 164.567 214.645 164.868 213.919C165.174 213.188 165.621 212.613 166.211 212.194C166.8 211.775 167.525 211.565 168.387 211.565C169.225 211.565 169.945 211.777 170.546 212.202C171.146 212.627 171.605 213.205 171.923 213.936C172.246 214.667 172.407 215.489 172.407 216.401C172.407 217.319 172.246 218.144 171.923 218.875C171.6 219.606 171.135 220.187 170.529 220.617C169.922 221.043 169.191 221.255 168.336 221.255ZM164.205 225.08V211.82H165.327V218.73H165.463V225.08H164.205ZM168.208 220.09C168.849 220.09 169.381 219.929 169.806 219.606C170.231 219.283 170.549 218.844 170.758 218.288C170.974 217.727 171.081 217.098 171.081 216.401C171.081 215.71 170.976 215.087 170.767 214.531C170.557 213.976 170.237 213.537 169.806 213.214C169.381 212.891 168.84 212.729 168.183 212.729C167.542 212.729 167.01 212.885 166.585 213.197C166.165 213.509 165.851 213.942 165.641 214.497C165.432 215.047 165.327 215.682 165.327 216.401C165.327 217.11 165.432 217.744 165.641 218.305C165.851 218.861 166.168 219.297 166.593 219.614C167.018 219.932 167.557 220.09 168.208 220.09ZM178.396 221.255C177.552 221.255 176.838 221.043 176.254 220.617C175.671 220.187 175.229 219.606 174.928 218.875C174.628 218.138 174.478 217.314 174.478 216.401C174.478 215.472 174.628 214.645 174.928 213.919C175.234 213.188 175.682 212.613 176.271 212.194C176.861 211.775 177.586 211.565 178.447 211.565C179.286 211.565 180.006 211.777 180.606 212.202C181.207 212.627 181.666 213.205 181.983 213.936C182.306 214.667 182.468 215.489 182.468 216.401C182.468 217.319 182.306 218.144 181.983 218.875C181.66 219.606 181.196 220.187 180.589 220.617C179.983 221.043 179.252 221.255 178.396 221.255ZM174.265 225.08V211.82H175.387V218.73H175.523V225.08H174.265ZM178.269 220.09C178.909 220.09 179.442 219.929 179.867 219.606C180.292 219.283 180.609 218.844 180.819 218.288C181.034 217.727 181.142 217.098 181.142 216.401C181.142 215.71 181.037 215.087 180.827 214.531C180.618 213.976 180.297 213.537 179.867 213.214C179.442 212.891 178.901 212.729 178.243 212.729C177.603 212.729 177.07 212.885 176.645 213.197C176.226 213.509 175.911 213.942 175.702 214.497C175.492 215.047 175.387 215.682 175.387 216.401C175.387 217.11 175.492 217.744 175.702 218.305C175.911 218.861 176.229 219.297 176.654 219.614C177.079 219.932 177.617 220.09 178.269 220.09ZM184.504 221V208.505H185.754V221H184.504ZM188.472 210.077V208.675H189.722V210.077H188.472ZM188.472 221V211.82H189.722V221H188.472ZM196.078 221.255C195.154 221.255 194.372 221.048 193.732 220.634C193.092 220.221 192.604 219.651 192.27 218.926C191.941 218.195 191.771 217.356 191.76 216.41C191.771 215.447 191.947 214.602 192.287 213.877C192.627 213.146 193.117 212.579 193.757 212.177C194.398 211.769 195.174 211.565 196.086 211.565C197.016 211.565 197.823 211.792 198.509 212.245C199.2 212.698 199.673 213.319 199.928 214.106L198.704 214.497C198.489 213.948 198.146 213.523 197.676 213.222C197.211 212.916 196.679 212.763 196.078 212.763C195.404 212.763 194.845 212.919 194.403 213.231C193.961 213.537 193.633 213.965 193.417 214.514C193.202 215.064 193.092 215.696 193.086 216.41C193.097 217.509 193.352 218.393 193.851 219.062C194.35 219.725 195.092 220.056 196.078 220.056C196.701 220.056 197.231 219.915 197.667 219.631C198.109 219.342 198.444 218.923 198.67 218.373L199.928 218.747C199.588 219.563 199.09 220.187 198.432 220.617C197.775 221.043 196.99 221.255 196.078 221.255ZM204.26 221.255C203.568 221.255 202.988 221.13 202.517 220.881C202.053 220.632 201.704 220.3 201.472 219.886C201.239 219.473 201.123 219.022 201.123 218.535C201.123 218.036 201.222 217.611 201.421 217.26C201.625 216.903 201.9 216.611 202.245 216.384C202.597 216.158 203.002 215.985 203.461 215.866C203.925 215.753 204.438 215.653 204.999 215.568C205.566 215.478 206.118 215.401 206.657 215.339C207.201 215.271 207.677 215.206 208.085 215.143L207.643 215.415C207.66 214.509 207.484 213.837 207.116 213.401C206.747 212.965 206.107 212.746 205.195 212.746C204.566 212.746 204.033 212.888 203.597 213.171C203.166 213.455 202.863 213.902 202.687 214.514L201.472 214.157C201.681 213.336 202.104 212.698 202.738 212.245C203.373 211.792 204.197 211.565 205.212 211.565C206.05 211.565 206.762 211.724 207.345 212.041C207.935 212.353 208.351 212.806 208.595 213.401C208.708 213.667 208.782 213.965 208.816 214.293C208.85 214.622 208.867 214.956 208.867 215.296V221H207.753V218.696L208.076 218.832C207.765 219.62 207.28 220.221 206.623 220.634C205.965 221.048 205.178 221.255 204.26 221.255ZM204.404 220.175C204.988 220.175 205.498 220.071 205.934 219.861C206.371 219.651 206.722 219.365 206.988 219.002C207.255 218.634 207.427 218.22 207.507 217.761C207.575 217.467 207.612 217.144 207.617 216.792C207.623 216.435 207.626 216.169 207.626 215.993L208.102 216.24C207.677 216.297 207.215 216.353 206.716 216.41C206.223 216.467 205.736 216.532 205.254 216.605C204.778 216.679 204.348 216.767 203.962 216.869C203.702 216.943 203.449 217.047 203.206 217.183C202.962 217.314 202.761 217.489 202.602 217.71C202.449 217.931 202.373 218.206 202.373 218.535C202.373 218.801 202.438 219.059 202.568 219.308C202.704 219.558 202.92 219.765 203.214 219.929C203.515 220.093 203.911 220.175 204.404 220.175ZM216.077 221C215.562 221.108 215.052 221.15 214.547 221.128C214.049 221.105 213.601 220.997 213.204 220.804C212.813 220.612 212.516 220.311 212.312 219.903C212.148 219.563 212.057 219.221 212.04 218.875C212.029 218.524 212.023 218.124 212.023 217.676V209.27H213.264V217.625C213.264 218.011 213.267 218.334 213.272 218.594C213.284 218.849 213.343 219.076 213.451 219.274C213.655 219.654 213.978 219.881 214.42 219.954C214.868 220.028 215.42 220.011 216.077 219.903V221ZM210.059 212.891V211.82H216.077V212.891H210.059ZM218.056 210.077V208.675H219.306V210.077H218.056ZM218.056 221V211.82H219.306V221H218.056ZM225.687 221.255C224.775 221.255 223.996 221.048 223.35 220.634C222.704 220.221 222.208 219.648 221.862 218.917C221.517 218.186 221.344 217.348 221.344 216.401C221.344 215.438 221.52 214.594 221.871 213.868C222.222 213.143 222.721 212.579 223.367 212.177C224.019 211.769 224.792 211.565 225.687 211.565C226.605 211.565 227.387 211.772 228.033 212.185C228.685 212.593 229.181 213.163 229.521 213.894C229.867 214.619 230.039 215.455 230.039 216.401C230.039 217.365 229.867 218.212 229.521 218.943C229.175 219.668 228.677 220.235 228.025 220.643C227.373 221.051 226.594 221.255 225.687 221.255ZM225.687 220.056C226.707 220.056 227.467 219.719 227.965 219.045C228.464 218.365 228.713 217.484 228.713 216.401C228.713 215.291 228.461 214.407 227.957 213.749C227.458 213.092 226.702 212.763 225.687 212.763C225.002 212.763 224.435 212.919 223.987 213.231C223.545 213.537 223.214 213.965 222.993 214.514C222.778 215.058 222.67 215.687 222.67 216.401C222.67 217.506 222.925 218.393 223.435 219.062C223.945 219.725 224.696 220.056 225.687 220.056ZM238.544 221V216.317C238.544 215.806 238.496 215.339 238.4 214.914C238.304 214.483 238.148 214.109 237.932 213.792C237.723 213.469 237.448 213.22 237.108 213.044C236.774 212.868 236.366 212.78 235.884 212.78C235.442 212.78 235.051 212.857 234.711 213.01C234.377 213.163 234.093 213.384 233.861 213.673C233.634 213.956 233.461 214.302 233.342 214.71C233.223 215.118 233.164 215.583 233.164 216.104L232.28 215.908C232.28 214.968 232.444 214.177 232.773 213.537C233.102 212.897 233.555 212.412 234.133 212.083C234.711 211.755 235.374 211.591 236.122 211.591C236.672 211.591 237.15 211.675 237.558 211.845C237.972 212.015 238.321 212.245 238.604 212.534C238.893 212.823 239.125 213.154 239.301 213.528C239.477 213.897 239.604 214.291 239.683 214.71C239.763 215.124 239.802 215.537 239.802 215.951V221H238.544ZM231.906 221V211.82H233.036V214.081H233.164V221H231.906ZM245.434 221.247C244.357 221.247 243.47 221.014 242.773 220.549C242.082 220.085 241.657 219.439 241.498 218.611L242.773 218.399C242.909 218.92 243.218 219.337 243.7 219.648C244.187 219.954 244.788 220.107 245.502 220.107C246.199 220.107 246.748 219.963 247.151 219.674C247.553 219.379 247.754 218.98 247.754 218.475C247.754 218.192 247.689 217.963 247.559 217.787C247.434 217.606 247.176 217.438 246.785 217.285C246.394 217.132 245.811 216.951 245.034 216.741C244.201 216.515 243.55 216.288 243.079 216.061C242.609 215.835 242.275 215.574 242.076 215.279C241.878 214.979 241.779 214.614 241.779 214.183C241.779 213.662 241.926 213.205 242.221 212.814C242.515 212.418 242.923 212.112 243.445 211.896C243.966 211.675 244.572 211.565 245.264 211.565C245.955 211.565 246.573 211.678 247.117 211.905C247.666 212.126 248.108 212.438 248.443 212.84C248.777 213.242 248.975 213.71 249.038 214.242L247.763 214.472C247.678 213.934 247.409 213.509 246.955 213.197C246.508 212.88 245.938 212.715 245.247 212.704C244.595 212.687 244.065 212.812 243.657 213.078C243.249 213.339 243.045 213.687 243.045 214.123C243.045 214.367 243.119 214.577 243.266 214.752C243.414 214.922 243.68 215.084 244.065 215.237C244.456 215.39 245.012 215.557 245.731 215.738C246.576 215.954 247.239 216.18 247.72 216.418C248.202 216.656 248.545 216.937 248.749 217.26C248.953 217.583 249.055 217.982 249.055 218.458C249.055 219.325 248.732 220.008 248.086 220.507C247.445 221 246.561 221.247 245.434 221.247Z" fill="#8E9ABB"/>
<rect x="56" y="331" width="16" height="16" rx="4" fill="#34C759"/>
<path d="M80.98 344V333.92H86.769V334.949H82.009V338.449H85.929V339.471H82.009V344H80.98ZM88.1747 335.005V333.85H89.2037V335.005H88.1747ZM88.1747 344V336.44H89.2037V344H88.1747ZM96.7623 344V340.143C96.7623 339.723 96.7226 339.338 96.6433 338.988C96.5639 338.633 96.4356 338.325 96.2583 338.064C96.0856 337.798 95.8593 337.593 95.5793 337.448C95.3039 337.303 94.9679 337.231 94.5713 337.231C94.2073 337.231 93.8853 337.294 93.6053 337.42C93.3299 337.546 93.0966 337.728 92.9053 337.966C92.7186 338.199 92.5763 338.484 92.4783 338.82C92.3803 339.156 92.3313 339.539 92.3313 339.968L91.6033 339.807C91.6033 339.032 91.7386 338.381 92.0093 337.854C92.2799 337.327 92.6533 336.928 93.1293 336.657C93.6053 336.386 94.1513 336.251 94.7673 336.251C95.2199 336.251 95.6143 336.321 95.9503 336.461C96.2909 336.601 96.5779 336.79 96.8113 337.028C97.0493 337.266 97.2406 337.539 97.3853 337.847C97.5299 338.15 97.6349 338.475 97.7003 338.82C97.7656 339.161 97.7983 339.501 97.7983 339.842V344H96.7623ZM91.2953 344V336.44H92.2263V338.302H92.3313V344H91.2953ZM99.7548 335.005V333.85H100.784V335.005H99.7548ZM99.7548 344V336.44H100.784V344H99.7548ZM105.703 344.203C104.817 344.203 104.086 344.012 103.512 343.629C102.943 343.246 102.593 342.714 102.462 342.033L103.512 341.858C103.624 342.287 103.879 342.63 104.275 342.887C104.677 343.139 105.171 343.265 105.759 343.265C106.333 343.265 106.786 343.146 107.117 342.908C107.449 342.665 107.614 342.336 107.614 341.921C107.614 341.688 107.561 341.499 107.453 341.354C107.351 341.205 107.138 341.067 106.816 340.941C106.494 340.815 106.014 340.666 105.374 340.493C104.688 340.306 104.152 340.12 103.764 339.933C103.377 339.746 103.102 339.532 102.938 339.289C102.775 339.042 102.693 338.741 102.693 338.386C102.693 337.957 102.815 337.581 103.057 337.259C103.3 336.932 103.636 336.68 104.065 336.503C104.495 336.321 104.994 336.23 105.563 336.23C106.133 336.23 106.641 336.323 107.089 336.51C107.542 336.692 107.906 336.949 108.181 337.28C108.457 337.611 108.62 337.996 108.671 338.435L107.621 338.624C107.551 338.181 107.33 337.831 106.956 337.574C106.588 337.313 106.119 337.177 105.549 337.168C105.013 337.154 104.576 337.257 104.24 337.476C103.904 337.691 103.736 337.978 103.736 338.337C103.736 338.538 103.797 338.71 103.918 338.855C104.04 338.995 104.259 339.128 104.576 339.254C104.898 339.38 105.356 339.518 105.948 339.667C106.644 339.844 107.19 340.031 107.586 340.227C107.983 340.423 108.265 340.654 108.433 340.92C108.601 341.186 108.685 341.515 108.685 341.907C108.685 342.621 108.419 343.183 107.887 343.594C107.36 344 106.632 344.203 105.703 344.203ZM115.698 344V340.143C115.698 339.723 115.658 339.338 115.579 338.988C115.499 338.633 115.371 338.325 115.194 338.064C115.021 337.798 114.795 337.593 114.515 337.448C114.239 337.303 113.903 337.231 113.507 337.231C113.143 337.231 112.821 337.294 112.541 337.42C112.265 337.546 112.032 337.728 111.841 337.966C111.654 338.199 111.512 338.484 111.414 338.82C111.316 339.156 111.267 339.539 111.267 339.968L110.539 339.807C110.539 339.032 110.674 338.381 110.945 337.854C111.215 337.327 111.589 336.928 112.065 336.657C112.541 336.386 113.087 336.251 113.703 336.251C114.155 336.251 114.55 336.321 114.886 336.461C115.226 336.601 115.513 336.79 115.747 337.028C115.985 337.266 116.176 337.539 116.321 337.847C116.465 338.15 116.57 338.475 116.636 338.82C116.701 339.161 116.734 339.501 116.734 339.842V344H115.698ZM110.231 344V333.92H111.162V339.611H111.267V344H110.231ZM121.749 344.21C121.012 344.21 120.373 344.047 119.831 343.72C119.295 343.393 118.877 342.934 118.578 342.341C118.28 341.748 118.13 341.053 118.13 340.255C118.13 339.429 118.277 338.715 118.571 338.113C118.865 337.511 119.278 337.047 119.81 336.72C120.347 336.393 120.979 336.23 121.707 336.23C122.454 336.23 123.091 336.403 123.618 336.748C124.146 337.089 124.545 337.579 124.815 338.218C125.086 338.857 125.21 339.62 125.186 340.507H124.136V340.143C124.118 339.163 123.905 338.423 123.499 337.924C123.098 337.425 122.51 337.175 121.735 337.175C120.923 337.175 120.3 337.439 119.866 337.966C119.437 338.493 119.222 339.245 119.222 340.22C119.222 341.172 119.437 341.912 119.866 342.439C120.3 342.962 120.914 343.223 121.707 343.223C122.249 343.223 122.72 343.099 123.121 342.852C123.527 342.6 123.847 342.238 124.08 341.767L125.039 342.138C124.741 342.796 124.3 343.307 123.716 343.671C123.138 344.03 122.482 344.21 121.749 344.21ZM118.858 340.507V339.646H124.633V340.507H118.858ZM129.673 344.21C128.968 344.21 128.366 344.035 127.867 343.685C127.367 343.33 126.985 342.852 126.719 342.25C126.453 341.648 126.32 340.969 126.32 340.213C126.32 339.462 126.45 338.785 126.712 338.183C126.978 337.581 127.358 337.105 127.853 336.755C128.347 336.405 128.94 336.23 129.631 336.23C130.34 336.23 130.937 336.403 131.423 336.748C131.908 337.093 132.274 337.567 132.522 338.169C132.774 338.766 132.9 339.448 132.9 340.213C132.9 340.964 132.776 341.643 132.529 342.25C132.281 342.852 131.917 343.33 131.437 343.685C130.956 344.035 130.368 344.21 129.673 344.21ZM129.778 343.251C130.314 343.251 130.758 343.12 131.108 342.859C131.458 342.598 131.719 342.238 131.892 341.781C132.064 341.319 132.151 340.796 132.151 340.213C132.151 339.62 132.064 339.098 131.892 338.645C131.719 338.188 131.458 337.831 131.108 337.574C130.762 337.317 130.326 337.189 129.799 337.189C129.257 337.189 128.809 337.322 128.455 337.588C128.1 337.854 127.836 338.216 127.664 338.673C127.496 339.13 127.412 339.644 127.412 340.213C127.412 340.787 127.498 341.305 127.671 341.767C127.848 342.224 128.112 342.586 128.462 342.852C128.812 343.118 129.25 343.251 129.778 343.251ZM132.151 344V338.309H132.039V333.92H133.075V344H132.151Z" fill="#212633"/>
<rect x="213" y="331" width="16" height="16" rx="4" fill="#F93535"/>
<path d="M238.683 344V333.92H242.575C242.673 333.92 242.783 333.925 242.904 333.934C243.03 333.939 243.156 333.953 243.282 333.976C243.809 334.055 244.255 334.24 244.619 334.529C244.988 334.814 245.265 335.173 245.452 335.607C245.643 336.041 245.739 336.522 245.739 337.049C245.739 337.81 245.538 338.47 245.137 339.03C244.736 339.59 244.162 339.942 243.415 340.087L243.058 340.171H239.712V344H238.683ZM244.787 344L242.799 339.898L243.786 339.52L245.97 344H244.787ZM239.712 339.191H242.547C242.631 339.191 242.729 339.186 242.841 339.177C242.953 339.168 243.063 339.151 243.17 339.128C243.515 339.053 243.798 338.911 244.017 338.701C244.241 338.491 244.407 338.241 244.514 337.952C244.626 337.663 244.682 337.362 244.682 337.049C244.682 336.736 244.626 336.435 244.514 336.146C244.407 335.852 244.241 335.6 244.017 335.39C243.798 335.18 243.515 335.038 243.17 334.963C243.063 334.94 242.953 334.926 242.841 334.921C242.729 334.912 242.631 334.907 242.547 334.907H239.712V339.191ZM250.714 344.21C249.977 344.21 249.337 344.047 248.796 343.72C248.259 343.393 247.842 342.934 247.543 342.341C247.244 341.748 247.095 341.053 247.095 340.255C247.095 339.429 247.242 338.715 247.536 338.113C247.83 337.511 248.243 337.047 248.775 336.72C249.312 336.393 249.944 336.23 250.672 336.23C251.419 336.23 252.056 336.403 252.583 336.748C253.11 337.089 253.509 337.579 253.78 338.218C254.051 338.857 254.174 339.62 254.151 340.507H253.101V340.143C253.082 339.163 252.87 338.423 252.464 337.924C252.063 337.425 251.475 337.175 250.7 337.175C249.888 337.175 249.265 337.439 248.831 337.966C248.402 338.493 248.187 339.245 248.187 340.22C248.187 341.172 248.402 341.912 248.831 342.439C249.265 342.962 249.879 343.223 250.672 343.223C251.213 343.223 251.685 343.099 252.086 342.852C252.492 342.6 252.812 342.238 253.045 341.767L254.004 342.138C253.705 342.796 253.264 343.307 252.681 343.671C252.102 344.03 251.447 344.21 250.714 344.21ZM247.823 340.507V339.646H253.598V340.507H247.823ZM254.585 347.36V346.366H255.012C255.352 346.366 255.623 346.277 255.824 346.1C256.029 345.927 256.132 345.636 256.132 345.225V336.44H257.154V345.484C257.154 346.114 257.002 346.583 256.699 346.891C256.4 347.204 255.94 347.36 255.32 347.36H254.585ZM256.132 335.005V333.85H257.154V335.005H256.132ZM262.417 344.21C261.68 344.21 261.041 344.047 260.499 343.72C259.963 343.393 259.545 342.934 259.246 342.341C258.948 341.748 258.798 341.053 258.798 340.255C258.798 339.429 258.945 338.715 259.239 338.113C259.533 337.511 259.946 337.047 260.478 336.72C261.015 336.393 261.647 336.23 262.375 336.23C263.122 336.23 263.759 336.403 264.286 336.748C264.814 337.089 265.213 337.579 265.483 338.218C265.754 338.857 265.878 339.62 265.854 340.507H264.804V340.143C264.786 339.163 264.573 338.423 264.167 337.924C263.766 337.425 263.178 337.175 262.403 337.175C261.591 337.175 260.968 337.439 260.534 337.966C260.105 338.493 259.89 339.245 259.89 340.22C259.89 341.172 260.105 341.912 260.534 342.439C260.968 342.962 261.582 343.223 262.375 343.223C262.917 343.223 263.388 343.099 263.789 342.852C264.195 342.6 264.515 342.238 264.748 341.767L265.707 342.138C265.409 342.796 264.968 343.307 264.384 343.671C263.806 344.03 263.15 344.21 262.417 344.21ZM259.526 340.507V339.646H265.301V340.507H259.526ZM270.544 344.21C269.783 344.21 269.139 344.04 268.612 343.699C268.084 343.358 267.683 342.889 267.408 342.292C267.137 341.69 266.997 340.999 266.988 340.22C266.997 339.427 267.142 338.731 267.422 338.134C267.702 337.532 268.105 337.065 268.633 336.734C269.16 336.398 269.799 336.23 270.551 336.23C271.316 336.23 271.981 336.417 272.546 336.79C273.115 337.163 273.505 337.674 273.715 338.323L272.707 338.645C272.529 338.192 272.247 337.842 271.86 337.595C271.477 337.343 271.038 337.217 270.544 337.217C269.988 337.217 269.529 337.345 269.165 337.602C268.801 337.854 268.53 338.206 268.353 338.659C268.175 339.112 268.084 339.632 268.08 340.22C268.089 341.125 268.299 341.853 268.71 342.404C269.12 342.95 269.732 343.223 270.544 343.223C271.057 343.223 271.493 343.106 271.853 342.873C272.217 342.635 272.492 342.29 272.679 341.837L273.715 342.145C273.435 342.817 273.024 343.33 272.483 343.685C271.941 344.035 271.295 344.21 270.544 344.21ZM279.276 344C278.851 344.089 278.431 344.124 278.016 344.105C277.605 344.086 277.236 343.998 276.91 343.839C276.588 343.68 276.343 343.433 276.175 343.097C276.039 342.817 275.965 342.535 275.951 342.25C275.941 341.961 275.937 341.632 275.937 341.263V334.34H276.959V341.221C276.959 341.538 276.961 341.804 276.966 342.019C276.975 342.229 277.024 342.416 277.113 342.579C277.281 342.892 277.547 343.078 277.911 343.139C278.279 343.2 278.734 343.186 279.276 343.097V344ZM274.32 337.322V336.44H279.276V337.322H274.32ZM283.691 344.21C282.953 344.21 282.314 344.047 281.773 343.72C281.236 343.393 280.818 342.934 280.52 342.341C280.221 341.748 280.072 341.053 280.072 340.255C280.072 339.429 280.219 338.715 280.513 338.113C280.807 337.511 281.22 337.047 281.752 336.72C282.288 336.393 282.921 336.23 283.649 336.23C284.395 336.23 285.032 336.403 285.56 336.748C286.087 337.089 286.486 337.579 286.757 338.218C287.027 338.857 287.151 339.62 287.128 340.507H286.078V340.143C286.059 339.163 285.847 338.423 285.441 337.924C285.039 337.425 284.451 337.175 283.677 337.175C282.865 337.175 282.242 337.439 281.808 337.966C281.378 338.493 281.164 339.245 281.164 340.22C281.164 341.172 281.378 341.912 281.808 342.439C282.242 342.962 282.855 343.223 283.649 343.223C284.19 343.223 284.661 343.099 285.063 342.852C285.469 342.6 285.788 342.238 286.022 341.767L286.981 342.138C286.682 342.796 286.241 343.307 285.658 343.671C285.079 344.03 284.423 344.21 283.691 344.21ZM280.8 340.507V339.646H286.575V340.507H280.8ZM291.614 344.21C290.91 344.21 290.308 344.035 289.808 343.685C289.309 343.33 288.926 342.852 288.66 342.25C288.394 341.648 288.261 340.969 288.261 340.213C288.261 339.462 288.392 338.785 288.653 338.183C288.919 337.581 289.3 337.105 289.794 336.755C290.289 336.405 290.882 336.23 291.572 336.23C292.282 336.23 292.879 336.403 293.364 336.748C293.85 337.093 294.216 337.567 294.463 338.169C294.715 338.766 294.841 339.448 294.841 340.213C294.841 340.964 294.718 341.643 294.47 342.25C294.223 342.852 293.859 343.33 293.378 343.685C292.898 344.035 292.31 344.21 291.614 344.21ZM291.719 343.251C292.256 343.251 292.699 343.12 293.049 342.859C293.399 342.598 293.661 342.238 293.833 341.781C294.006 341.319 294.092 340.796 294.092 340.213C294.092 339.62 294.006 339.098 293.833 338.645C293.661 338.188 293.399 337.831 293.049 337.574C292.704 337.317 292.268 337.189 291.74 337.189C291.199 337.189 290.751 337.322 290.396 337.588C290.042 337.854 289.778 338.216 289.605 338.673C289.437 339.13 289.353 339.644 289.353 340.213C289.353 340.787 289.44 341.305 289.612 341.767C289.79 342.224 290.053 342.586 290.403 342.852C290.753 343.118 291.192 343.251 291.719 343.251ZM294.092 344V338.309H293.98V333.92H295.016V344H294.092Z" fill="#212633"/>
<rect x="56" y="369" width="16" height="16" rx="4" fill="#F9AB35"/>
<path d="M81.5347 382V371.92H85.4267C85.9914 371.92 86.4837 372.037 86.9037 372.27C87.3237 372.503 87.6504 372.818 87.8837 373.215C88.117 373.607 88.2337 374.041 88.2337 374.517C88.2337 375.058 88.089 375.541 87.7997 375.966C87.5104 376.386 87.123 376.678 86.6377 376.841L86.6237 376.498C87.277 376.685 87.7904 377.011 88.1637 377.478C88.537 377.945 88.7237 378.509 88.7237 379.172C88.7237 379.755 88.6 380.259 88.3527 380.684C88.1054 381.104 87.7577 381.428 87.3097 381.657C86.8617 381.886 86.3414 382 85.7487 382H81.5347ZM82.5707 381.013H85.4967C85.9074 381.013 86.276 380.941 86.6027 380.796C86.9294 380.647 87.186 380.437 87.3727 380.166C87.564 379.895 87.6597 379.569 87.6597 379.186C87.6597 378.813 87.5734 378.477 87.4007 378.178C87.228 377.879 86.9924 377.641 86.6937 377.464C86.3997 377.282 86.0637 377.191 85.6857 377.191H82.5707V381.013ZM82.5707 376.218H85.4197C85.7417 376.218 86.0357 376.146 86.3017 376.001C86.5677 375.852 86.7777 375.649 86.9317 375.392C87.0904 375.135 87.1697 374.839 87.1697 374.503C87.1697 374.027 87.004 373.64 86.6727 373.341C86.346 373.042 85.9284 372.893 85.4197 372.893H82.5707V376.218ZM93.3196 382.21C92.5823 382.21 91.943 382.047 91.4016 381.72C90.865 381.393 90.4473 380.934 90.1486 380.341C89.85 379.748 89.7006 379.053 89.7006 378.255C89.7006 377.429 89.8476 376.715 90.1416 376.113C90.4356 375.511 90.8486 375.047 91.3806 374.72C91.9173 374.393 92.5496 374.23 93.2776 374.23C94.0243 374.23 94.6613 374.403 95.1886 374.748C95.716 375.089 96.115 375.579 96.3856 376.218C96.6563 376.857 96.78 377.62 96.7566 378.507H95.7066V378.143C95.688 377.163 95.4756 376.423 95.0696 375.924C94.6683 375.425 94.0803 375.175 93.3056 375.175C92.4936 375.175 91.8706 375.439 91.4366 375.966C91.0073 376.493 90.7926 377.245 90.7926 378.22C90.7926 379.172 91.0073 379.912 91.4366 380.439C91.8706 380.962 92.4843 381.223 93.2776 381.223C93.819 381.223 94.2903 381.099 94.6916 380.852C95.0976 380.6 95.4173 380.238 95.6506 379.767L96.6096 380.138C96.311 380.796 95.87 381.307 95.2866 381.671C94.708 382.03 94.0523 382.21 93.3196 382.21ZM90.4286 378.507V377.646H96.2036V378.507H90.4286ZM98.4501 373.005V371.85H99.4791V373.005H98.4501ZM98.4501 382V374.44H99.4791V382H98.4501ZM107.038 382V378.143C107.038 377.723 106.998 377.338 106.919 376.988C106.839 376.633 106.711 376.325 106.534 376.064C106.361 375.798 106.135 375.593 105.855 375.448C105.579 375.303 105.243 375.231 104.847 375.231C104.483 375.231 104.161 375.294 103.881 375.42C103.605 375.546 103.372 375.728 103.181 375.966C102.994 376.199 102.852 376.484 102.754 376.82C102.656 377.156 102.607 377.539 102.607 377.968L101.879 377.807C101.879 377.032 102.014 376.381 102.285 375.854C102.555 375.327 102.929 374.928 103.405 374.657C103.881 374.386 104.427 374.251 105.043 374.251C105.495 374.251 105.89 374.321 106.226 374.461C106.566 374.601 106.853 374.79 107.087 375.028C107.325 375.266 107.516 375.539 107.661 375.847C107.805 376.15 107.91 376.475 107.976 376.82C108.041 377.161 108.074 377.501 108.074 377.842V382H107.038ZM101.571 382V374.44H102.502V376.302H102.607V382H101.571ZM112.893 385.57C112.506 385.57 112.123 385.512 111.745 385.395C111.372 385.283 111.026 385.103 110.709 384.856C110.392 384.613 110.126 384.296 109.911 383.904L110.842 383.386C111.052 383.806 111.346 384.107 111.724 384.289C112.107 384.476 112.496 384.569 112.893 384.569C113.439 384.569 113.88 384.466 114.216 384.261C114.557 384.06 114.804 383.762 114.958 383.365C115.112 382.968 115.187 382.474 115.182 381.881V379.865H115.301V374.44H116.218V381.895C116.218 382.11 116.211 382.315 116.197 382.511C116.188 382.712 116.167 382.908 116.134 383.099C116.045 383.664 115.861 384.128 115.581 384.492C115.306 384.856 114.942 385.127 114.489 385.304C114.041 385.481 113.509 385.57 112.893 385.57ZM112.823 382.21C112.118 382.21 111.516 382.035 111.017 381.685C110.518 381.33 110.135 380.852 109.869 380.25C109.603 379.648 109.47 378.969 109.47 378.213C109.47 377.462 109.601 376.785 109.862 376.183C110.128 375.581 110.508 375.105 111.003 374.755C111.498 374.405 112.09 374.23 112.781 374.23C113.49 374.23 114.088 374.403 114.573 374.748C115.058 375.093 115.425 375.567 115.672 376.169C115.924 376.766 116.05 377.448 116.05 378.213C116.05 378.964 115.926 379.643 115.679 380.25C115.432 380.852 115.068 381.33 114.587 381.685C114.106 382.035 113.518 382.21 112.823 382.21ZM112.928 381.251C113.465 381.251 113.908 381.12 114.258 380.859C114.608 380.598 114.869 380.238 115.042 379.781C115.215 379.319 115.301 378.796 115.301 378.213C115.301 377.62 115.215 377.098 115.042 376.645C114.869 376.188 114.608 375.831 114.258 375.574C113.913 375.317 113.476 375.189 112.949 375.189C112.408 375.189 111.96 375.322 111.605 375.588C111.25 375.854 110.987 376.216 110.814 376.673C110.646 377.13 110.562 377.644 110.562 378.213C110.562 378.787 110.648 379.305 110.821 379.767C110.998 380.224 111.262 380.586 111.612 380.852C111.962 381.118 112.401 381.251 112.928 381.251ZM120.978 382V371.92H124.87C124.968 371.92 125.078 371.925 125.199 371.934C125.325 371.939 125.451 371.953 125.577 371.976C126.104 372.055 126.55 372.24 126.914 372.529C127.283 372.814 127.56 373.173 127.747 373.607C127.938 374.041 128.034 374.522 128.034 375.049C128.034 375.81 127.833 376.47 127.432 377.03C127.031 377.59 126.457 377.942 125.71 378.087L125.353 378.171H122.007V382H120.978ZM127.082 382L125.094 377.898L126.081 377.52L128.265 382H127.082ZM122.007 377.191H124.842C124.926 377.191 125.024 377.186 125.136 377.177C125.248 377.168 125.358 377.151 125.465 377.128C125.81 377.053 126.093 376.911 126.312 376.701C126.536 376.491 126.702 376.241 126.809 375.952C126.921 375.663 126.977 375.362 126.977 375.049C126.977 374.736 126.921 374.435 126.809 374.146C126.702 373.852 126.536 373.6 126.312 373.39C126.093 373.18 125.81 373.038 125.465 372.963C125.358 372.94 125.248 372.926 125.136 372.921C125.024 372.912 124.926 372.907 124.842 372.907H122.007V377.191ZM133.009 382.21C132.272 382.21 131.632 382.047 131.091 381.72C130.554 381.393 130.137 380.934 129.838 380.341C129.539 379.748 129.39 379.053 129.39 378.255C129.39 377.429 129.537 376.715 129.831 376.113C130.125 375.511 130.538 375.047 131.07 374.72C131.607 374.393 132.239 374.23 132.967 374.23C133.714 374.23 134.351 374.403 134.878 374.748C135.405 375.089 135.804 375.579 136.075 376.218C136.346 376.857 136.469 377.62 136.446 378.507H135.396V378.143C135.377 377.163 135.165 376.423 134.759 375.924C134.358 375.425 133.77 375.175 132.995 375.175C132.183 375.175 131.56 375.439 131.126 375.966C130.697 376.493 130.482 377.245 130.482 378.22C130.482 379.172 130.697 379.912 131.126 380.439C131.56 380.962 132.174 381.223 132.967 381.223C133.508 381.223 133.98 381.099 134.381 380.852C134.787 380.6 135.107 380.238 135.34 379.767L136.299 380.138C136 380.796 135.559 381.307 134.976 381.671C134.397 382.03 133.742 382.21 133.009 382.21ZM130.118 378.507V377.646H135.893V378.507H130.118ZM139.77 382L137.026 374.44H138.069L140.302 380.656L142.521 374.44H143.578L140.834 382H139.77ZM144.975 373.005V371.85H146.004V373.005H144.975ZM144.975 382V374.44H146.004V382H144.975ZM151.302 382.21C150.565 382.21 149.925 382.047 149.384 381.72C148.847 381.393 148.43 380.934 148.131 380.341C147.832 379.748 147.683 379.053 147.683 378.255C147.683 377.429 147.83 376.715 148.124 376.113C148.418 375.511 148.831 375.047 149.363 374.72C149.9 374.393 150.532 374.23 151.26 374.23C152.007 374.23 152.644 374.403 153.171 374.748C153.698 375.089 154.097 375.579 154.368 376.218C154.639 376.857 154.762 377.62 154.739 378.507H153.689V378.143C153.67 377.163 153.458 376.423 153.052 375.924C152.651 375.425 152.063 375.175 151.288 375.175C150.476 375.175 149.853 375.439 149.419 375.966C148.99 376.493 148.775 377.245 148.775 378.22C148.775 379.172 148.99 379.912 149.419 380.439C149.853 380.962 150.467 381.223 151.26 381.223C151.801 381.223 152.273 381.099 152.674 380.852C153.08 380.6 153.4 380.238 153.633 379.767L154.592 380.138C154.293 380.796 153.852 381.307 153.269 381.671C152.69 382.03 152.035 382.21 151.302 382.21ZM148.411 378.507V377.646H154.186V378.507H148.411ZM157.629 382L155.319 374.433L156.348 374.44L158.14 380.313L159.939 374.44H160.877L162.676 380.313L164.482 374.44H165.504L163.194 382H162.298L160.408 375.98L158.525 382H157.629ZM169.691 382.21C168.953 382.21 168.314 382.047 167.773 381.72C167.236 381.393 166.818 380.934 166.52 380.341C166.221 379.748 166.072 379.053 166.072 378.255C166.072 377.429 166.219 376.715 166.513 376.113C166.807 375.511 167.22 375.047 167.752 374.72C168.288 374.393 168.921 374.23 169.649 374.23C170.395 374.23 171.032 374.403 171.56 374.748C172.087 375.089 172.486 375.579 172.757 376.218C173.027 376.857 173.151 377.62 173.128 378.507H172.078V378.143C172.059 377.163 171.847 376.423 171.441 375.924C171.039 375.425 170.451 375.175 169.677 375.175C168.865 375.175 168.242 375.439 167.808 375.966C167.378 376.493 167.164 377.245 167.164 378.22C167.164 379.172 167.378 379.912 167.808 380.439C168.242 380.962 168.855 381.223 169.649 381.223C170.19 381.223 170.661 381.099 171.063 380.852C171.469 380.6 171.788 380.238 172.022 379.767L172.981 380.138C172.682 380.796 172.241 381.307 171.658 381.671C171.079 382.03 170.423 382.21 169.691 382.21ZM166.8 378.507V377.646H172.575V378.507H166.8ZM177.614 382.21C176.91 382.21 176.308 382.035 175.808 381.685C175.309 381.33 174.926 380.852 174.66 380.25C174.394 379.648 174.261 378.969 174.261 378.213C174.261 377.462 174.392 376.785 174.653 376.183C174.919 375.581 175.3 375.105 175.794 374.755C176.289 374.405 176.882 374.23 177.572 374.23C178.282 374.23 178.879 374.403 179.364 374.748C179.85 375.093 180.216 375.567 180.463 376.169C180.715 376.766 180.841 377.448 180.841 378.213C180.841 378.964 180.718 379.643 180.47 380.25C180.223 380.852 179.859 381.33 179.378 381.685C178.898 382.035 178.31 382.21 177.614 382.21ZM177.719 381.251C178.256 381.251 178.699 381.12 179.049 380.859C179.399 380.598 179.661 380.238 179.833 379.781C180.006 379.319 180.092 378.796 180.092 378.213C180.092 377.62 180.006 377.098 179.833 376.645C179.661 376.188 179.399 375.831 179.049 375.574C178.704 375.317 178.268 375.189 177.74 375.189C177.199 375.189 176.751 375.322 176.396 375.588C176.042 375.854 175.778 376.216 175.605 376.673C175.437 377.13 175.353 377.644 175.353 378.213C175.353 378.787 175.44 379.305 175.612 379.767C175.79 380.224 176.053 380.586 176.403 380.852C176.753 381.118 177.192 381.251 177.719 381.251ZM180.092 382V376.309H179.98V371.92H181.016V382H180.092Z" fill="#212633"/>
<rect x="213.333" y="369" width="16" height="16" rx="4" fill="#356CF9"/>
<path d="M238.358 382V371.92H242.25C242.348 371.92 242.458 371.925 242.579 371.934C242.705 371.939 242.831 371.953 242.957 371.976C243.485 372.055 243.93 372.24 244.294 372.529C244.663 372.814 244.941 373.173 245.127 373.607C245.319 374.041 245.414 374.522 245.414 375.049C245.414 375.572 245.319 376.05 245.127 376.484C244.936 376.918 244.656 377.28 244.287 377.569C243.923 377.854 243.48 378.036 242.957 378.115C242.831 378.134 242.705 378.148 242.579 378.157C242.458 378.166 242.348 378.171 242.25 378.171H239.387V382H238.358ZM239.387 377.191H242.222C242.306 377.191 242.404 377.186 242.516 377.177C242.628 377.168 242.738 377.151 242.845 377.128C243.191 377.053 243.473 376.911 243.692 376.701C243.916 376.491 244.082 376.241 244.189 375.952C244.301 375.663 244.357 375.362 244.357 375.049C244.357 374.736 244.301 374.435 244.189 374.146C244.082 373.852 243.916 373.6 243.692 373.39C243.473 373.18 243.191 373.038 242.845 372.963C242.738 372.94 242.628 372.926 242.516 372.921C242.404 372.912 242.306 372.907 242.222 372.907H239.387V377.191ZM246.807 382V374.44H247.731V376.26L247.549 376.022C247.633 375.798 247.743 375.593 247.878 375.406C248.014 375.215 248.161 375.058 248.319 374.937C248.515 374.764 248.744 374.634 249.005 374.545C249.267 374.452 249.53 374.398 249.796 374.384C250.062 374.365 250.305 374.384 250.524 374.44V375.406C250.249 375.336 249.948 375.32 249.621 375.357C249.295 375.394 248.994 375.525 248.718 375.749C248.466 375.945 248.277 376.181 248.151 376.456C248.025 376.727 247.941 377.016 247.899 377.324C247.857 377.627 247.836 377.928 247.836 378.227V382H246.807ZM254.873 382.21C254.121 382.21 253.48 382.04 252.948 381.699C252.416 381.358 252.007 380.887 251.723 380.285C251.438 379.683 251.296 378.992 251.296 378.213C251.296 377.42 251.44 376.724 251.73 376.127C252.019 375.53 252.43 375.065 252.962 374.734C253.498 374.398 254.135 374.23 254.873 374.23C255.629 374.23 256.273 374.4 256.805 374.741C257.341 375.077 257.75 375.546 258.03 376.148C258.314 376.745 258.457 377.434 258.457 378.213C258.457 379.006 258.314 379.704 258.03 380.306C257.745 380.903 257.334 381.37 256.798 381.706C256.261 382.042 255.619 382.21 254.873 382.21ZM254.873 381.223C255.713 381.223 256.338 380.945 256.749 380.39C257.159 379.83 257.365 379.104 257.365 378.213C257.365 377.298 257.157 376.57 256.742 376.029C256.331 375.488 255.708 375.217 254.873 375.217C254.308 375.217 253.841 375.345 253.473 375.602C253.109 375.854 252.836 376.206 252.654 376.659C252.476 377.107 252.388 377.625 252.388 378.213C252.388 379.123 252.598 379.853 253.018 380.404C253.438 380.95 254.056 381.223 254.873 381.223ZM263.137 382.21C262.376 382.21 261.732 382.04 261.205 381.699C260.677 381.358 260.276 380.889 260.001 380.292C259.73 379.69 259.59 378.999 259.581 378.22C259.59 377.427 259.735 376.731 260.015 376.134C260.295 375.532 260.698 375.065 261.226 374.734C261.753 374.398 262.392 374.23 263.144 374.23C263.909 374.23 264.574 374.417 265.139 374.79C265.708 375.163 266.098 375.674 266.308 376.323L265.3 376.645C265.122 376.192 264.84 375.842 264.453 375.595C264.07 375.343 263.631 375.217 263.137 375.217C262.581 375.217 262.122 375.345 261.758 375.602C261.394 375.854 261.123 376.206 260.946 376.659C260.768 377.112 260.677 377.632 260.673 378.22C260.682 379.125 260.892 379.853 261.303 380.404C261.713 380.95 262.325 381.223 263.137 381.223C263.65 381.223 264.086 381.106 264.446 380.873C264.81 380.635 265.085 380.29 265.272 379.837L266.308 380.145C266.028 380.817 265.617 381.33 265.076 381.685C264.534 382.035 263.888 382.21 263.137 382.21ZM270.747 382.21C270.009 382.21 269.37 382.047 268.829 381.72C268.292 381.393 267.874 380.934 267.576 380.341C267.277 379.748 267.128 379.053 267.128 378.255C267.128 377.429 267.275 376.715 267.569 376.113C267.863 375.511 268.276 375.047 268.808 374.72C269.344 374.393 269.977 374.23 270.705 374.23C271.451 374.23 272.088 374.403 272.616 374.748C273.143 375.089 273.542 375.579 273.813 376.218C274.083 376.857 274.207 377.62 274.184 378.507H273.134V378.143C273.115 377.163 272.903 376.423 272.497 375.924C272.095 375.425 271.507 375.175 270.733 375.175C269.921 375.175 269.298 375.439 268.864 375.966C268.434 376.493 268.22 377.245 268.22 378.22C268.22 379.172 268.434 379.912 268.864 380.439C269.298 380.962 269.911 381.223 270.705 381.223C271.246 381.223 271.717 381.099 272.119 380.852C272.525 380.6 272.844 380.238 273.078 379.767L274.037 380.138C273.738 380.796 273.297 381.307 272.714 381.671C272.135 382.03 271.479 382.21 270.747 382.21ZM267.856 378.507V377.646H273.631V378.507H267.856ZM278.558 382.203C277.671 382.203 276.941 382.012 276.367 381.629C275.798 381.246 275.448 380.714 275.317 380.033L276.367 379.858C276.479 380.287 276.733 380.63 277.13 380.887C277.531 381.139 278.026 381.265 278.614 381.265C279.188 381.265 279.641 381.146 279.972 380.908C280.303 380.665 280.469 380.336 280.469 379.921C280.469 379.688 280.415 379.499 280.308 379.354C280.205 379.205 279.993 379.067 279.671 378.941C279.349 378.815 278.868 378.666 278.229 378.493C277.543 378.306 277.006 378.12 276.619 377.933C276.232 377.746 275.956 377.532 275.793 377.289C275.63 377.042 275.548 376.741 275.548 376.386C275.548 375.957 275.669 375.581 275.912 375.259C276.155 374.932 276.491 374.68 276.92 374.503C277.349 374.321 277.849 374.23 278.418 374.23C278.987 374.23 279.496 374.323 279.944 374.51C280.397 374.692 280.761 374.949 281.036 375.28C281.311 375.611 281.475 375.996 281.526 376.435L280.476 376.624C280.406 376.181 280.184 375.831 279.811 375.574C279.442 375.313 278.973 375.177 278.404 375.168C277.867 375.154 277.431 375.257 277.095 375.476C276.759 375.691 276.591 375.978 276.591 376.337C276.591 376.538 276.652 376.71 276.773 376.855C276.894 376.995 277.114 377.128 277.431 377.254C277.753 377.38 278.21 377.518 278.803 377.667C279.498 377.844 280.044 378.031 280.441 378.227C280.838 378.423 281.12 378.654 281.288 378.92C281.456 379.186 281.54 379.515 281.54 379.907C281.54 380.621 281.274 381.183 280.742 381.594C280.215 382 279.487 382.203 278.558 382.203ZM285.914 382.203C285.027 382.203 284.297 382.012 283.723 381.629C283.153 381.246 282.803 380.714 282.673 380.033L283.723 379.858C283.835 380.287 284.089 380.63 284.486 380.887C284.887 381.139 285.382 381.265 285.97 381.265C286.544 381.265 286.996 381.146 287.328 380.908C287.659 380.665 287.825 380.336 287.825 379.921C287.825 379.688 287.771 379.499 287.664 379.354C287.561 379.205 287.349 379.067 287.027 378.941C286.705 378.815 286.224 378.666 285.585 378.493C284.899 378.306 284.362 378.12 283.975 377.933C283.587 377.746 283.312 377.532 283.149 377.289C282.985 377.042 282.904 376.741 282.904 376.386C282.904 375.957 283.025 375.581 283.268 375.259C283.51 374.932 283.846 374.68 284.276 374.503C284.705 374.321 285.204 374.23 285.774 374.23C286.343 374.23 286.852 374.323 287.3 374.51C287.752 374.692 288.116 374.949 288.392 375.28C288.667 375.611 288.83 375.996 288.882 376.435L287.832 376.624C287.762 376.181 287.54 375.831 287.167 375.574C286.798 375.313 286.329 375.177 285.76 375.168C285.223 375.154 284.787 375.257 284.451 375.476C284.115 375.691 283.947 375.978 283.947 376.337C283.947 376.538 284.007 376.71 284.129 376.855C284.25 376.995 284.469 377.128 284.787 377.254C285.109 377.38 285.566 377.518 286.159 377.667C286.854 377.844 287.4 378.031 287.797 378.227C288.193 378.423 288.476 378.654 288.644 378.92C288.812 379.186 288.896 379.515 288.896 379.907C288.896 380.621 288.63 381.183 288.098 381.594C287.57 382 286.842 382.203 285.914 382.203ZM290.588 373.005V371.85H291.617V373.005H290.588ZM290.588 382V374.44H291.617V382H290.588ZM299.176 382V378.143C299.176 377.723 299.136 377.338 299.057 376.988C298.977 376.633 298.849 376.325 298.672 376.064C298.499 375.798 298.273 375.593 297.993 375.448C297.717 375.303 297.381 375.231 296.985 375.231C296.621 375.231 296.299 375.294 296.019 375.42C295.743 375.546 295.51 375.728 295.319 375.966C295.132 376.199 294.99 376.484 294.892 376.82C294.794 377.156 294.745 377.539 294.745 377.968L294.017 377.807C294.017 377.032 294.152 376.381 294.423 375.854C294.693 375.327 295.067 374.928 295.543 374.657C296.019 374.386 296.565 374.251 297.181 374.251C297.633 374.251 298.028 374.321 298.364 374.461C298.704 374.601 298.991 374.79 299.225 375.028C299.463 375.266 299.654 375.539 299.799 375.847C299.943 376.15 300.048 376.475 300.114 376.82C300.179 377.161 300.212 377.501 300.212 377.842V382H299.176ZM293.709 382V374.44H294.64V376.302H294.745V382H293.709ZM305.031 385.57C304.644 385.57 304.261 385.512 303.883 385.395C303.51 385.283 303.164 385.103 302.847 384.856C302.53 384.613 302.264 384.296 302.049 383.904L302.98 383.386C303.19 383.806 303.484 384.107 303.862 384.289C304.245 384.476 304.634 384.569 305.031 384.569C305.577 384.569 306.018 384.466 306.354 384.261C306.695 384.06 306.942 383.762 307.096 383.365C307.25 382.968 307.325 382.474 307.32 381.881V379.865H307.439V374.44H308.356V381.895C308.356 382.11 308.349 382.315 308.335 382.511C308.326 382.712 308.305 382.908 308.272 383.099C308.183 383.664 307.999 384.128 307.719 384.492C307.444 384.856 307.08 385.127 306.627 385.304C306.179 385.481 305.647 385.57 305.031 385.57ZM304.961 382.21C304.256 382.21 303.654 382.035 303.155 381.685C302.656 381.33 302.273 380.852 302.007 380.25C301.741 379.648 301.608 378.969 301.608 378.213C301.608 377.462 301.739 376.785 302 376.183C302.266 375.581 302.646 375.105 303.141 374.755C303.636 374.405 304.228 374.23 304.919 374.23C305.628 374.23 306.226 374.403 306.711 374.748C307.196 375.093 307.563 375.567 307.81 376.169C308.062 376.766 308.188 377.448 308.188 378.213C308.188 378.964 308.064 379.643 307.817 380.25C307.57 380.852 307.206 381.33 306.725 381.685C306.244 382.035 305.656 382.21 304.961 382.21ZM305.066 381.251C305.603 381.251 306.046 381.12 306.396 380.859C306.746 380.598 307.007 380.238 307.18 379.781C307.353 379.319 307.439 378.796 307.439 378.213C307.439 377.62 307.353 377.098 307.18 376.645C307.007 376.188 306.746 375.831 306.396 375.574C306.051 375.317 305.614 375.189 305.087 375.189C304.546 375.189 304.098 375.322 303.743 375.588C303.388 375.854 303.125 376.216 302.952 376.673C302.784 377.13 302.7 377.644 302.7 378.213C302.7 378.787 302.786 379.305 302.959 379.767C303.136 380.224 303.4 380.586 303.75 380.852C304.1 381.118 304.539 381.251 305.066 381.251Z" fill="#212633"/>
</svg>
